<?xml version="1.0" encoding="UTF-8"?>
<!-- Generator: Adobe Illustrator 22.0.1, SVG Export Plug-In . SVG Version: 6.00 Build 0)  -->
<svg version="1.1" id="Layer_1" xmlns="http://www.w3.org/2000/svg" xmlns:xlink="http://www.w3.org/1999/xlink" x="0px" y="0px" viewBox="0 0 317 319.7" style="enable-background:new 0 0 317 319.7;" xml:space="preserve">
<style type="text/css">
	.st0{fill:#FFFFFF;}
	.st1{fill:#00B9ED;}
	.st2{fill:none;stroke:#009DDC;stroke-width:2.596;}
	.st3{fill:#AEDAF5;}
</style>
<g>
	<g>
		<path class="st0" d="M27.5,121.5c0.3,1.7,0.5,4.9-0.2,8.5c-0.8,4-2.5,7.1-5.5,9.2c-2.7,1.8-6.5,2.6-10.6,1.7    c-7.9-1.6-12.6-8.2-10.8-17.1c0.6-3.1,1.8-5.4,2.5-6.4l2.6,1.4c-1,1.3-1.8,3-2.3,5.6c-1.3,6.5,1.9,11.5,8.5,12.8    c6.7,1.3,11.5-1.9,12.7-8.1c0.4-2.2,0.4-3.8,0.2-4.7l-7.9-1.6l-1.1,5.4l-2.8-0.5l1.7-8.7L27.5,121.5z"/>
	</g>
	<g>
		<path class="st0" d="M23.6,109.7c4.4,1.8,7.4-0.3,8.8-3.5c1-2.3,1.2-3.9,1.2-5.3l2.5,0.4c0,1.4-0.2,3.6-1.3,6.5    c-2.3,5.5-7.3,7.3-12.7,5.1c-5.4-2.3-8.4-7.3-6.2-12.5c2.4-5.9,8.2-5.2,11.5-3.9c0.7,0.3,1.2,0.5,1.5,0.8L23.6,109.7z M25.2,99.2    c-2-0.9-5.7-1.3-7.2,2.3c-1.4,3.3,1.1,6,3.2,7.2L25.2,99.2z"/>
	</g>
	<g>
		<path class="st0" d="M28.4,87.1c-1.7-1.1-3.1-1.9-4.5-2.7l1.7-2.6l2.8,1.5l0-0.1c-1-1.8-1.3-4.6,0.4-7.4c1.4-2.3,5-4.9,10.7-1.3    l9.8,6.2l-1.9,3l-9.4-6c-2.6-1.7-5.5-2.1-7.3,0.7c-1.2,1.9-0.8,4.3,0.5,5.9c0.3,0.4,0.8,0.8,1.3,1.1l9.9,6.3l-1.9,3L28.4,87.1z"/>
	</g>
	<g>
		<path class="st0" d="M48.8,66.9c3.6,3.2,7.1,2.3,9.4-0.3c1.7-1.9,2.4-3.3,2.9-4.6l2.3,1.2c-0.4,1.3-1.4,3.4-3.5,5.6    c-4,4.4-9.4,4.4-13.7,0.5c-4.4-4-5.4-9.7-1.6-13.8c4.3-4.7,9.5-2.1,12.1,0.3c0.5,0.5,0.9,0.9,1.2,1.2L48.8,66.9z M53.8,57.6    c-1.6-1.5-4.9-3.2-7.5-0.3c-2.4,2.7-1,6,0.6,7.9L53.8,57.6z"/>
	</g>
	<g>
		<path class="st0" d="M62,47.6c-1.4-1.8-2.7-3.3-4-4.6l2.4-2l2.5,2.8l0.1-0.1c-1-2.6-0.3-5.2,1.5-6.7c0.3-0.2,0.5-0.4,0.8-0.5    l2.1,2.5c-0.3,0.2-0.6,0.4-1,0.7c-1.9,1.6-2.1,4.2-0.8,6.5c0.3,0.5,0.6,0.9,1,1.4l6.6,8l-2.7,2.2L62,47.6z"/>
	</g>
	<g>
		<path class="st0" d="M92.5,36.9c0.9,1.4,1.8,2.8,2.7,3.8l-2.7,1.6l-1.5-1.9l-0.1,0.1c-0.1,1.8-1.2,4.1-3.6,5.6    c-3.4,2-6.5,0.7-8-1.7c-2.4-4-0.2-8.4,6.2-12.2l-0.2-0.3c-0.8-1.4-2.7-3.6-6.1-1.6c-1.6,1-2.9,2.4-3.6,3.9l-1.9-1.6    c0.9-1.7,2.5-3.5,4.6-4.8c5.1-3.1,8.4-0.4,10.5,2.9L92.5,36.9z M86.9,34.2c-3.3,1.9-6.7,4.8-4.8,8c1.2,2,3.1,2.1,4.6,1.2    c2.2-1.3,2.8-3.6,2.4-5.3c-0.1-0.4-0.3-0.7-0.4-1L86.9,34.2z"/>
	</g>
	<g>
		<path class="st0" d="M91.9,10.8l3.2-1.4l11.5,26.1l-3.2,1.4L91.9,10.8z"/>
	</g>
	<g>
		<path class="st0" d="M123.3,2.1c1.4-0.6,3.8-1.3,6.2-1.7c3.4-0.6,5.8-0.4,7.6,0.6c1.6,0.8,2.7,2.2,3.1,4.3    c0.5,2.6-0.9,5.2-3.5,6.7l0,0.1c2.6,0.1,6,1.7,6.7,5.7c0.4,2.3-0.2,4.2-1.3,5.7c-1.5,2-4.4,3.3-8.7,4.1c-2.4,0.4-4.2,0.6-5.4,0.6    L123.3,2.1z M128.6,12.3l3.1-0.6c3.6-0.6,5.4-3,4.9-5.5c-0.5-3.1-3.1-3.9-6.6-3.3c-1.6,0.3-2.5,0.6-3,0.8L128.6,12.3z M130.9,25.1    c0.7,0,1.7-0.1,2.9-0.4c3.6-0.6,6.6-2.5,5.9-6.4c-0.6-3.6-4-4.6-7.8-3.9l-2.8,0.5L130.9,25.1z"/>
	</g>
	<g>
		<path class="st0" d="M165.4,20.1c0,1.7,0.1,3.3,0.3,4.7l-3.2,0l-0.3-2.4l-0.1,0c-1,1.5-3.2,2.9-5.9,2.9c-3.9,0-6-2.7-6-5.5    c0-4.7,4.1-7.3,11.6-7.3l0-0.4c0-1.6-0.5-4.5-4.4-4.5c-1.8,0-3.7,0.5-5.1,1.5l-0.8-2.4c1.6-1,4-1.7,6.4-1.7c6,0,7.5,4,7.5,7.9    L165.4,20.1z M161.9,14.8c-3.9-0.1-8.2,0.7-8.2,4.4c0,2.3,1.5,3.4,3.3,3.4c2.6,0,4.2-1.6,4.8-3.3c0.1-0.4,0.2-0.8,0.2-1.1    L161.9,14.8z"/>
	</g>
	<g>
		<path class="st0" d="M181.6,2.3L181,6.9l5,0.7l-0.4,2.7l-5-0.7L179.2,20c-0.3,2.4,0.2,3.8,2.1,4.1c1,0.1,1.5,0.1,2.1,0l-0.2,2.7    c-0.7,0.1-1.8,0.2-3.2,0.1c-1.6-0.2-2.9-1-3.6-2c-0.8-1.2-1-3-0.7-5.2l1.4-10.5l-3-0.4l0.4-2.7l3,0.4l0.5-3.5L181.6,2.3z"/>
	</g>
	<g>
		<path class="st0" d="M198.2,0.8l3.4,1l-3.4,11.6l0.1,0c0.8-0.8,1.9-1.4,3.1-1.7c1.2-0.3,2.5-0.3,3.7,0.1c2.5,0.7,6.1,3.5,4.2,9.9    L206,32.8l-3.4-1l3.2-10.7c0.9-3,0.5-5.9-2.7-6.8c-2.2-0.6-4.3,0.4-5.5,2.1c-0.3,0.4-0.5,0.9-0.7,1.5l-3.3,11.2l-3.4-1L198.2,0.8z    "/>
	</g>
	<g>
		<path class="st0" d="M222.8,18.8l-1.2,12.2c-0.1,1.4-0.4,2.9-0.6,4.1l0.1,0c0.8-0.9,1.8-2,2.9-3.1l8.4-8.6l3.4,1.6L225,35.2    c-5.2,4.9-8.2,7.2-11.3,8.1c-2.2,0.6-4,0.4-4.9,0.1l0.5-3.1c0.9,0.2,2.2,0.2,3.5-0.2c1.2-0.3,2.8-1,4.4-2.2    c0.3-0.3,0.5-0.4,0.6-0.6c0.1-0.2,0.1-0.5,0.1-0.9l1.4-19.3L222.8,18.8z"/>
	</g>
	<g>
		<path class="st0" d="M240,33.3c1.2-1.6,2.2-2.9,3.1-4.3l2.5,1.9l-1.8,2.6l0.1,0.1c2-0.8,4.5-1.1,7,0.9c2.1,1.6,2.7,4.1,2,6.4    l0.1,0c1.2-0.5,2.3-0.7,3.3-0.7c1.5,0,2.7,0.4,4.2,1.5c2.1,1.6,4.1,5.2,0,10.6l-7,9.1l-2.7-2.1l6.7-8.7c2.3-3,2.5-5.6,0.3-7.3    c-1.6-1.2-3.7-1-5.3-0.1c-0.4,0.3-0.9,0.8-1.3,1.2l-7.3,9.5l-2.7-2.1l7.1-9.2c1.9-2.5,2.2-5.1,0-6.7c-1.7-1.3-4.1-0.9-5.6,0.1    c-0.5,0.3-0.9,0.7-1.3,1.2l-7.1,9.3l-2.7-2.1L240,33.3z"/>
	</g>
	<g>
		<path class="st0" d="M266.1,62.2c-3.6,3.2-3.1,6.7-0.8,9.4c1.6,1.9,3,2.8,4.2,3.4l-1.5,2.1c-1.2-0.6-3.2-1.8-5.2-4.1    c-3.9-4.5-3.2-9.8,1.2-13.6c4.5-3.8,10.2-4.2,13.9,0.1c4.1,4.8,1,9.7-1.7,12c-0.5,0.5-1,0.8-1.4,1L266.1,62.2z M274.7,68.4    c1.7-1.4,3.7-4.4,1.2-7.4c-2.4-2.7-5.8-1.7-7.9-0.4L274.7,68.4z"/>
	</g>
	<g>
		<path class="st0" d="M295,75.5l-3.9,2.5l2.7,4.3l-2.3,1.4l-2.7-4.3l-8.8,5.6c-2,1.3-2.8,2.6-1.8,4.3c0.5,0.8,0.9,1.2,1.3,1.6    l-2.2,1.6c-0.6-0.4-1.4-1.2-2.1-2.4c-0.9-1.4-1.1-2.8-0.8-4c0.4-1.4,1.6-2.7,3.6-3.9l8.9-5.7l-1.6-2.5l2.3-1.4l1.6,2.5l3-1.9    L295,75.5z"/>
	</g>
	<g>
		<path class="st0" d="M293.1,94c2.1-1,3.8-1.9,5.4-2.7l1.3,2.8l-3.4,1.8l0.1,0.1c2.7-0.3,5.1,0.9,6.2,3.1c0.2,0.3,0.2,0.6,0.3,0.9    l-3,1.4c-0.1-0.4-0.3-0.7-0.5-1.2c-1.1-2.2-3.5-3-6.1-2.4c-0.5,0.2-1,0.4-1.6,0.6l-9.4,4.4l-1.5-3.2L293.1,94z"/>
	</g>
	<g>
		<path class="st0" d="M287.8,115.8l18.4-6.2l1.1,3.3l-18.4,6.2L287.8,115.8z M310.1,110c-0.4-1.3,0.3-2.4,1.5-2.8    c1.2-0.4,2.4,0.2,2.9,1.4s-0.2,2.5-1.4,2.8C311.9,111.8,310.6,111.3,310.1,110L310.1,110z"/>
	</g>
	<g>
		<path class="st0" d="M295.1,141.7c-0.6-0.8-1.7-2.7-2.2-5.2c-1.2-5.7,2-10.3,7.9-11.4c5.9-1.2,11,2,12.2,8.2c0.4,2,0.3,4-0.1,5    l-2.8-0.3c0.3-0.9,0.5-2.3,0.1-4.2c-0.9-4.4-4.6-6.1-8.6-5.3c-4.4,0.9-6.6,4.3-5.8,8c0.4,2,1.1,3.2,1.8,4.1L295.1,141.7z"/>
	</g>
	<g>
		<path class="st0" d="M9.2,208.9c-0.9-1-2.2-3.4-3-6.6c-1.9-7.4,1.4-14.1,10-16.3c8.2-2.1,15.2,2.1,17.2,10.2    c0.8,3.2,0.6,5.5,0.4,6.5l-3-0.2c0.3-1.4,0.3-3.3-0.2-5.5c-1.6-6.1-6.5-9.2-13.4-7.5c-6.5,1.6-9.6,6.4-8,12.7    c0.5,2.1,1.5,4.1,2.5,5.3L9.2,208.9z"/>
	</g>
	<g>
		<path class="st0" d="M37.9,207l1.5,3.2l-11,5.1l0,0.1c1.1,0.1,2.4,0.5,3.3,1.3c1,0.7,1.9,1.7,2.4,2.9c1.1,2.4,1.4,6.8-4.7,9.6    l-10.5,4.8l-1.5-3.2l10.1-4.7c2.9-1.3,4.8-3.5,3.4-6.5c-1-2.1-3.1-3-5.2-2.8c-0.5,0-1,0.2-1.6,0.5l-10.7,4.9l-1.5-3.2L37.9,207z"/>
	</g>
	<g>
		<path class="st0" d="M36.5,253c-1.4,1-2.7,1.9-3.7,2.9l-1.8-2.6l1.8-1.6l-0.1-0.1c-1.8,0-4.2-1-5.7-3.3c-2.2-3.2-1.1-6.5,1.2-8.1    c3.9-2.7,8.4-0.7,12.6,5.6l0.3-0.2c1.3-0.9,3.5-2.9,1.2-6.2c-1-1.5-2.5-2.8-4.1-3.4l1.5-2c1.7,0.8,3.6,2.3,5,4.3    c3.4,4.9,0.8,8.4-2.4,10.6L36.5,253z M38.9,247.2c-2.1-3.2-5.1-6.4-8.3-4.3c-1.9,1.3-1.9,3.2-0.9,4.6c1.5,2.1,3.7,2.6,5.4,2.1    c0.4-0.1,0.7-0.3,1-0.5L38.9,247.2z"/>
	</g>
	<g>
		<path class="st0" d="M50.3,256.1c1.7-1.5,3.1-2.9,4.4-4.2l2.1,2.3l-2.7,2.7l0.1,0.1c2.5-1.1,5.2-0.6,6.8,1.1    c0.2,0.3,0.4,0.5,0.6,0.8l-2.4,2.2c-0.2-0.3-0.5-0.6-0.8-1c-1.7-1.8-4.3-1.9-6.5-0.4c-0.4,0.3-0.9,0.6-1.3,1.1l-7.6,7l-2.4-2.6    L50.3,256.1z"/>
	</g>
	<g>
		<path class="st0" d="M73.8,264.1l-3,3.6l3.9,3.2l-1.7,2.1l-3.9-3.2l-6.7,8c-1.5,1.8-1.9,3.3-0.4,4.6c0.7,0.6,1.2,0.9,1.7,1.1    l-1.6,2.2c-0.7-0.3-1.7-0.8-2.7-1.6c-1.3-1.1-1.9-2.3-2-3.6c0-1.5,0.8-3,2.2-4.8l6.8-8.1l-2.3-1.9l1.7-2.1l2.3,1.9l2.3-2.7    L73.8,264.1z"/>
	</g>
	<g>
		<path class="st0" d="M90.9,304c-4.7-2.3-6.7-7.5-4-13c2.8-5.9,8.3-7.4,13.2-5.1c5,2.4,6.7,7.7,4.1,13C101,305.4,95.1,306,90.9,304    L90.9,304z M92.2,301.7c3,1.5,6.7-0.3,8.6-4.3c1.4-3,1.7-7.4-2-9.2c-3.7-1.8-7,0.9-8.6,4.2C88.3,296.2,89.1,300.2,92.2,301.7    L92.2,301.7z"/>
	</g>
	<g>
		<path class="st0" d="M110.5,311.5l5-16l-2.6-0.8l0.8-2.6l2.6,0.8l0.3-0.9c0.8-2.6,2.2-4.8,4.2-5.8c1.6-0.8,3.5-0.8,5-0.3    c1.2,0.4,2.1,1,2.7,1.4l-1.2,2.5c-0.5-0.4-1.1-0.8-2.1-1.1c-2.8-0.9-4.4,1.4-5.3,4.2l-0.3,1l4.5,1.4l-0.8,2.6l-4.4-1.4l-5,16    L110.5,311.5z"/>
	</g>
	<g>
		<path class="st0" d="M149.7,294.9l-0.4,4.6l5,0.4l-0.2,2.7l-5-0.4l-0.9,10.4c-0.2,2.4,0.4,3.8,2.3,4c1,0.1,1.5,0,2.1-0.1l-0.1,2.7    c-0.7,0.2-1.8,0.3-3.2,0.2c-1.6-0.1-2.9-0.8-3.7-1.8c-0.9-1.2-1.1-2.9-0.9-5.2l0.9-10.6l-3-0.2l0.2-2.7l3,0.2l0.3-3.6L149.7,294.9    z"/>
	</g>
	<g>
		<path class="st0" d="M161.4,291.2l3.5-0.2l0.8,12.1l0.1,0c0.5-1,1.3-2,2.4-2.7c1-0.7,2.2-1.2,3.5-1.2c2.6-0.2,6.9,1.1,7.3,7.8    l0.8,11.5l-3.5,0.2l-0.8-11.1c-0.2-3.2-1.6-5.7-4.9-5.5c-2.3,0.2-3.9,1.9-4.5,3.8c-0.2,0.5-0.2,1-0.1,1.7l0.8,11.7l-3.5,0.2    L161.4,291.2z"/>
	</g>
	<g>
		<path class="st0" d="M191.4,307.2c1.2,4.6,4.6,5.8,8,5c2.5-0.6,3.9-1.4,5-2.2l1.2,2.3c-1.1,0.8-3,2-6,2.8    c-5.8,1.4-10.2-1.6-11.6-7.2c-1.4-5.7,0.9-11,6.4-12.4c6.2-1.5,9.1,3.5,9.9,7c0.2,0.7,0.3,1.3,0.3,1.7L191.4,307.2z M200.8,302.3    c-0.5-2.2-2.3-5.4-6.1-4.4c-3.5,0.9-4.2,4.4-3.9,6.9L200.8,302.3z"/>
	</g>
	<g>
		<path class="st0" d="M240.7,298.3c-6.2,3.6-13.3,1.3-17.4-5.7c-4.3-7.4-2.6-14.9,3.7-18.6c6.4-3.7,13.4-1.3,17.4,5.7    C249.1,287.7,246.7,294.9,240.7,298.3L240.7,298.3z M239.4,295.8c4.8-2.8,4.9-8.8,1.8-14.1c-2.7-4.6-8-8.1-13-5.2    c-5,2.9-4.8,9.1-1.8,14.1C229.3,295.6,234.6,298.6,239.4,295.8L239.4,295.8z"/>
	</g>
	<g>
		<path class="st0" d="M269.9,275.3c-0.4,0.9-1.5,2.8-3.5,4.5c-4.4,3.8-9.9,3.3-13.8-1.2c-3.9-4.5-3.6-10.5,1.2-14.7    c1.6-1.4,3.3-2.2,4.4-2.4l1.1,2.6c-0.9,0.2-2.2,0.7-3.7,2c-3.4,2.9-3,7-0.4,10.1c2.9,3.4,6.9,3.6,9.8,1.1c1.5-1.3,2.2-2.5,2.7-3.5    L269.9,275.3z"/>
	</g>
	<g>
		<path class="st0" d="M272,261c3.7,3,7.1,2,9.4-0.7c1.6-1.9,2.3-3.4,2.7-4.7l2.3,1.1c-0.4,1.3-1.3,3.4-3.3,5.8    c-3.8,4.5-9.2,4.7-13.6,1c-4.5-3.8-5.8-9.5-2.1-13.8c4.1-4.8,9.4-2.5,12.1-0.2c0.6,0.5,1,0.9,1.2,1.2L272,261z M276.7,251.5    c-1.7-1.5-5-3-7.5,0c-2.3,2.8-0.8,6,0.9,7.8L276.7,251.5z"/>
	</g>
	<g>
		<path class="st0" d="M297,233.4c1.4,0.9,2.9,1.6,4.1,2.2l-1.6,2.7l-2.3-1l-0.1,0.1c0.8,1.7,0.8,4.2-0.6,6.6    c-2,3.4-5.4,3.7-7.8,2.2c-4-2.4-4.1-7.3-0.2-13.7l-0.3-0.2c-1.4-0.8-4.1-2-6.1,1.5c-0.9,1.6-1.5,3.5-1.4,5.1l-2.4-0.5    c0-1.9,0.6-4.3,1.9-6.4c3.1-5.1,7.3-4.3,10.6-2.3L297,233.4z M290.7,233.7c-2.1,3.3-3.7,7.4-0.5,9.3c2,1.2,3.7,0.4,4.6-1.1    c1.3-2.2,0.8-4.4-0.3-5.8c-0.2-0.3-0.6-0.5-0.9-0.7L290.7,233.7z"/>
	</g>
	<g>
		<path class="st0" d="M293.1,220c-1.9-0.7-3.4-1.3-5-1.7l1.1-2.9l3,1l0-0.1c-1.3-1.6-2.2-4.3-1.1-7.3c1-2.5,4-5.8,10.2-3.4    l10.8,4.2L311,213l-10.4-4c-2.9-1.1-5.8-1-7,2.1c-0.8,2.1,0.1,4.4,1.7,5.7c0.4,0.3,0.9,0.6,1.4,0.8l10.9,4.2l-1.3,3.3L293.1,220z"/>
	</g>
	<g>
		<path class="st0" d="M311.9,197.7c0.9-0.9,1.9-2.6,2.3-4.3c0.5-2.5-0.4-3.9-2.1-4.2c-1.6-0.3-2.8,0.4-4.2,2.8    c-2,3.2-4.2,4.4-6.4,3.9c-3.1-0.6-5-3.7-4.2-7.7c0.4-1.9,1.3-3.5,2.2-4.4l2.3,1.3c-0.6,0.7-1.5,1.9-1.9,3.7    c-0.4,2,0.5,3.4,1.9,3.7c1.6,0.3,2.5-0.6,4-2.9c1.9-3,3.9-4.4,6.8-3.8c3.4,0.7,5.2,3.8,4.2,8.3c-0.4,2.1-1.4,3.9-2.5,5.1    L311.9,197.7z"/>
	</g>
</g>
<path class="st1" d="M281.5,161c0,67-54.3,121.2-121.2,121.2C93.3,282.2,39,227.9,39,161C39,94,93.3,39.7,160.3,39.7  C227.2,39.7,281.5,94,281.5,161"/>
<path class="st2" d="M281.5,161c0,67-54.3,121.2-121.2,121.2C93.3,282.2,39,227.9,39,161C39,94,93.3,39.7,160.3,39.7  C227.2,39.7,281.5,94,281.5,161z"/>
<path class="st3" d="M49.7,162.3c0,0,8.4,17.9,35.4,23.3c10.6,2.1,17.4-3.5,21.8-3.9c10.6-1,16.6,0.1,27.6-1.5  c22.7-3.3,42.6-1.5,42.6-1.5c18.2,48.1,39.4-2.2,39.4-2.2c47.5,19.4,54.3-18.3,54.3-18.3c6.5,2.5-4.1,24.6-4.1,24.6  c-10.3,0.9-29.1,14.5-29.1,14.5c-9.2-0.5-17.3-4.9-17.3-4.9c-12.6,4.6-21.7,18.2-21.7,18.2c-18.8-0.6-16.4-15.1-20.6-15.1  c0,0-27.6-10.9-29.2-7.9c0,0-5-2.4-14.1,4c0,0-20-1.8-31,9.9c0,0-28.1-10.8-36.1-12.6C67.7,188.9,51.5,177.3,49.7,162.3"/>
<path class="st3" d="M53.9,185.6c1.8-2.1,17.9,15.7,17.9,15.7c14.5,1.5,18.2,9.1,22.4,9.7c3.5,0.5,35.2-9.7,38.2-9.1  c12.1,2.4,17.5,9.8,20.6,10.3c11.8,1.8,12.4,0.6,22.1,10c2.8,2.7,6.4,0.9,6.4,0.9c18.2,11.8,31.8-11.5,37.2-13.6  c4.7-1.8,20.9,5.8,46.3-9.4c0,0-9.7,20.6-14.2,23.6c-2.5,1.7-13.3-3.6-13.3-3.6c-7.3,5.8-57.2,27.3-59.3,25.1  c-9.5-9.5-9.1-9.7-24.8-13c-5.8-1.2-16-21.8-21.5-21.8c-4.2,0-18.2,13-20.9,14.8c-2.3,1.5-26.8,3.3-30.3,2.1  C76.9,226.2,49.4,190.9,53.9,185.6"/>
<path class="st3" d="M89.4,238.6c0,0,23.4-1.1,36.9-17.3c1.5-1.8,14.5,29.4,60.6,32.1c5.5,0.3,37.2-23.6,56.9-22.7  c4.7,0.2-41.2,35.7-71.8,36.9C168.6,267.8,115.7,266.8,89.4,238.6"/>
<g>
	<path class="st0" d="M90,99.6l0.4,19.3l-0.7,0.1c-1.4-6.6-3.2-11.5-5.4-14.7c-2.2-3.2-4.8-4.8-8-4.8c-2.4,0-4.5,0.7-6.2,2.2   c-1.7,1.4-3.4,3.8-4.9,7c-3,6.6-4.6,14.2-4.6,22.7c0,4.1,0.4,7.9,1.1,11.5c0.7,3.6,1.8,6.8,3.2,9.5c2.7,5.3,6,8,10,8   c1.5,0,3-0.5,4.4-1.4c1.4-0.9,2.5-2.3,3.4-3.9c1.2-2.3,1.8-5.1,1.8-8.2c0-2.9-0.5-5.1-1.6-6.4c-1.1-1.3-2.9-2-5.4-2v-1h19.4v1   c-1.8,0.2-3,0.6-3.8,1.1c-0.7,0.5-1.3,1.3-1.6,2.5c-0.4,1.3-0.6,3.9-0.6,7.8c0,1.1,0,2.7,0.1,5l0.1,1c-0.8-0.4-1.3-0.6-1.7-0.6   c-0.4,0-1,0.3-1.7,1c-1.8,1.8-3.8,3.1-6.2,4.1c-2.3,0.9-4.8,1.4-7.4,1.4c-3.6,0-6.8-0.9-9.7-2.7c-2.9-1.8-5.2-4.3-7-7.6   c-1.3-2.5-2.4-5.5-3.1-8.9c-0.7-3.4-1.1-7.1-1.1-10.9c0-5.3,0.6-10.2,1.9-14.8c1.3-4.6,3.1-8.3,5.5-11.3c1.9-2.4,4.2-4.3,6.7-5.6   c2.5-1.3,5.2-2,8-2c1.6,0,3.1,0.2,4.5,0.7c1.4,0.4,2.9,1.2,4.4,2.2l1.8,1.2c0.4,0.3,0.9,0.4,1.2,0.4c0.8,0,1.4-1,1.9-2.9H90z"/>
	<path class="st0" d="M131.5,99.6l0.5,14.7l-0.7,0c-0.3-2.5-0.7-4.5-1.3-6.2c-0.6-1.6-1.5-3.1-2.7-4.3c-1-1-2.1-1.8-3.4-2.2   c-1.3-0.4-3-0.6-5.2-0.6h-7v26.7h1.8c1.8,0,3.2-0.2,4.2-0.5c0.9-0.4,1.7-1,2.3-1.9c0.6-0.9,1-1.9,1.3-3c0.3-1.2,0.5-2.9,0.7-5.2   l0.7,0l-0.1,23.8h-0.7c-0.2-2.3-0.5-4.1-0.8-5.5c-0.4-1.4-0.8-2.6-1.5-3.6c-0.6-0.9-1.4-1.6-2.4-2.1c-1-0.4-2.2-0.7-3.7-0.7h-1.7   v10.2c0,4.1,0.1,7,0.2,8.9c0.1,1.9,0.4,3.4,0.8,4.6c0.7,2.1,1.7,3.7,3.2,4.7c1.4,1,3.3,1.5,5.6,1.5c2.4,0,4.5-0.5,6.1-1.4   c1.6-0.9,3-2.3,4-4.2c0.7-1.3,1.3-2.7,1.8-4.4c0.5-1.6,0.9-3.8,1.3-6.4l0.7,0l-0.4,17.7H98.7v-1c1.2-0.1,2.1-0.3,2.8-0.7   c0.7-0.4,1.4-1,1.9-1.9c0.6-0.9,1.1-2.2,1.3-3.6c0.2-1.5,0.4-3.7,0.4-6.7v-32.8c0-3-0.1-5.3-0.4-6.7c-0.2-1.5-0.7-2.7-1.3-3.6   c-0.5-0.9-1.2-1.5-1.9-1.9c-0.7-0.4-1.7-0.6-2.8-0.7v-1H131.5z"/>
	<path class="st0" d="M137.6,160.3v-1c1.2-0.1,2.1-0.3,2.8-0.7c0.7-0.4,1.4-1,1.9-1.8c0.6-0.9,1.1-2.1,1.3-3.6   c0.2-1.5,0.3-3.7,0.3-6.8v-32.8c0-3.1-0.1-5.3-0.3-6.8c-0.2-1.5-0.7-2.7-1.3-3.6c-0.5-0.9-1.2-1.5-1.9-1.9   c-0.7-0.4-1.7-0.6-2.8-0.7v-1h20c2,0,3.4,0,4,0.1c2.3,0.3,4.2,1.1,5.8,2.4c1.3,1.2,2.3,2.7,3.1,4.7c0.7,1.9,1.1,4.1,1.1,6.5   c0,3.9-0.8,7.1-2.5,9.6c-0.6,0.9-1.3,1.7-2,2.3c-0.8,0.6-1.8,1.3-3.3,2c2,0.5,3.5,1,4.5,1.6c1.1,0.6,2.1,1.3,2.9,2.4   c1.3,1.5,2.3,3.5,3,5.8c0.7,2.3,1.1,4.8,1.1,7.4c0,2.7-0.4,5.2-1.1,7.4c-0.7,2.2-1.8,4-3.1,5.4c-1.2,1.2-2.6,2.1-4.3,2.5   c-1.7,0.5-4,0.7-7,0.7H137.6z M150.7,101v26.4h2.5c1.2,0,2.4-0.1,3.6-0.4c1.1-0.2,1.9-0.5,2.6-0.8c0.7-0.3,1.3-0.8,1.8-1.3   c1-1.1,1.8-2.6,2.4-4.3c0.6-1.8,0.8-3.7,0.8-5.8c0-2.3-0.3-4.4-0.9-6.4c-0.6-2-1.3-3.6-2.3-4.7c-0.8-1-1.8-1.6-2.8-2   c-1.1-0.4-2.7-0.5-4.9-0.5H150.7z M150.7,128.8v18.3c0,2.2,0.1,4,0.3,5.4c0.2,1.4,0.6,2.5,1.1,3.5c1,2,2.8,3,5.3,3   c3.3,0,5.9-1.3,7.8-3.9c1.9-2.6,2.8-6.2,2.8-10.7c0-2.6-0.3-5-0.9-7.2c-0.6-2.2-1.4-3.9-2.4-5.1c-1.8-2.2-4.7-3.3-8.6-3.3H150.7z"/>
	<path class="st0" d="M217,99.3l0.4,19.9h-0.7c-0.2-0.9-0.4-1.5-0.5-2c-0.7-2.8-1.3-5-1.7-6.4c-0.8-2.5-1.9-4.8-3.4-6.8   c-1.1-1.6-2.3-2.7-3.5-3.4c-1.2-0.7-2.6-1.1-4.1-1.1c-2.3,0-4.3,0.7-6,2.2c-1.5,1.3-2.9,3.1-4.1,5.5c-1.3,2.4-2.3,5.1-3.1,8.2   c-1.2,4.3-1.7,9.2-1.7,14.7c0,4.7,0.4,8.8,1.2,12.6c0.8,3.7,2,6.9,3.5,9.4c2.8,4.7,6.5,7,11.2,7c2.3,0,4.4-0.6,6.2-1.8   c1.8-1.2,3.3-2.8,4.3-5c1.2-2.5,2-5.8,2.6-10l0.7,0.2c-0.4,4.7-1.3,8.4-2.6,11.2c-1.3,2.6-3.1,4.7-5.4,6c-2.3,1.4-4.9,2.1-7.9,2.1   c-2.8,0-5.5-0.6-8-1.8c-4.1-2-7.3-5.5-9.6-10.6c-2.3-5.1-3.4-11.2-3.4-18.3c0-5.4,0.7-10.4,2-15c1.3-4.6,3.2-8.3,5.6-11   c1.8-2.1,4.1-3.8,6.6-5.1c2.6-1.3,5.1-1.9,7.7-1.9c2.5,0,5.1,0.7,7.8,2l2.5,1.2c0.5,0.3,0.9,0.4,1.3,0.4c0.5,0,0.9-0.3,1.2-0.9   c0.1-0.3,0.3-0.8,0.5-1.5H217z"/>
	<path class="st0" d="M222.8,130.3c0-5,0.7-9.6,2.2-13.9c1.5-4.3,3.6-8,6.4-11.1c2.1-2.3,4.3-4.1,6.8-5.4c2.4-1.3,4.9-1.9,7.3-1.9   c3.1,0,6.2,1,9.1,3c2.9,2,5.5,4.8,7.7,8.5c3.6,5.9,5.4,12.7,5.4,20.2c0,3.8-0.5,7.5-1.4,11c-0.9,3.5-2.3,6.7-4.1,9.7   c-2.2,3.6-4.8,6.4-7.8,8.4c-3,2-6.1,3-9.4,3c-3.2,0-6.3-1-9.3-2.9c-2.9-1.9-5.5-4.7-7.6-8.2c-1.7-2.8-3-5.9-3.9-9.4   C223.2,137.8,222.8,134.1,222.8,130.3z M230.1,131c0,8.6,1.6,15.9,4.8,21.8c1.4,2.6,3,4.6,4.6,5.8c1.6,1.2,3.5,1.8,5.6,1.8   c2.1,0,4-0.6,5.6-1.8c1.6-1.2,3.2-3.1,4.6-5.8c3.2-5.9,4.8-13.2,4.8-21.9c0-4.8-0.4-9.3-1.3-13.5c-0.9-4.3-2.1-7.9-3.7-10.8   c-1.3-2.4-2.7-4.2-4.3-5.3c-1.6-1.1-3.5-1.7-5.7-1.7c-2.2,0-4,0.5-5.6,1.6c-1.6,1.1-3,2.9-4.4,5.3c-1.6,2.9-2.8,6.5-3.7,10.8   C230.6,121.5,230.1,126.1,230.1,131z"/>
</g>
</svg>