<?xml version="1.0" encoding="UTF-8" standalone="no"?>
<!-- Created with Inkscape (http://www.inkscape.org/) -->

<svg
   xmlns:dc="http://purl.org/dc/elements/1.1/"
   xmlns:cc="http://creativecommons.org/ns#"
   xmlns:rdf="http://www.w3.org/1999/02/22-rdf-syntax-ns#"
   xmlns:svg="http://www.w3.org/2000/svg"
   xmlns="http://www.w3.org/2000/svg"
   xmlns:sodipodi="http://sodipodi.sourceforge.net/DTD/sodipodi-0.dtd"
   xmlns:inkscape="http://www.inkscape.org/namespaces/inkscape"
   version="1.0"
   width="1103"
   height="1163"
   id="svg1901"
   sodipodi:docname="nautical_compass_rose_mag_north.svg"
   inkscape:version="0.92.4 (5da689c313, 2019-01-14)">
  <metadata
     id="metadata4891">
    <rdf:RDF>
      <cc:Work
         rdf:about="">
        <dc:format>image/svg+xml</dc:format>
        <dc:type
           rdf:resource="http://purl.org/dc/dcmitype/StillImage" />
        <dc:title />
      </cc:Work>
    </rdf:RDF>
  </metadata>
  <sodipodi:namedview
     pagecolor="#ffffff"
     bordercolor="#666666"
     borderopacity="1"
     objecttolerance="10"
     gridtolerance="10"
     guidetolerance="10"
     inkscape:pageopacity="0"
     inkscape:pageshadow="2"
     inkscape:window-width="1920"
     inkscape:window-height="986"
     id="namedview4889"
     showgrid="false"
     inkscape:zoom="0.73"
     inkscape:cx="551.5"
     inkscape:cy="581.5"
     inkscape:window-x="-11"
     inkscape:window-y="-11"
     inkscape:window-maximized="1"
     inkscape:current-layer="svg1901" />
  <defs
     id="defs1903" />
  <g
     id="g901"
     transform="rotate(4.25,550.02394,590.42165)">
    <path
       style="color:#000000;font-style:normal;font-variant:normal;font-weight:normal;font-stretch:semi-condensed;font-size:18px;line-height:125%;font-family:'DejaVu Sans';-inkscape-font-specification:'DejaVu Sans Semi-Condensed';text-align:center;writing-mode:lr-tb;text-anchor:middle;display:inline;overflow:visible;visibility:visible;fill:none;stroke:#e50083;stroke-width:1.99999988;stroke-linecap:butt;stroke-linejoin:miter;stroke-miterlimit:4;stroke-dashoffset:0;stroke-opacity:1;marker:none;enable-background:accumulate"
       id="path8222"
       d="m 550.02337,592.0551 h 13.10162 m -13.10672,-0.005 v -13.10163 m -0.005,13.10672 h -13.10163 m 13.10672,0.005 v 13.10162"
       inkscape:connector-curvature="0" />
    <path
       style="font-style:normal;font-variant:normal;font-weight:normal;font-stretch:semi-condensed;font-size:18px;line-height:125%;font-family:'DejaVu Sans';-inkscape-font-specification:'DejaVu Sans Semi-Condensed';text-align:center;writing-mode:lr-tb;text-anchor:middle;fill:none;stroke:none"
       id="path8242"
       d="m 550.02389,840.07904 a 248.02391,248.02391 0 1 1 0,-496.04782 248.02391,248.02391 0 0 1 0,496.04782 z"
       inkscape:connector-curvature="0" />
    <path
       style="color:#000000;font-style:normal;font-variant:normal;font-weight:normal;font-stretch:semi-condensed;font-size:18px;line-height:125%;font-family:'DejaVu Sans';-inkscape-font-specification:'DejaVu Sans Semi-Condensed';text-align:center;writing-mode:lr-tb;text-anchor:middle;display:inline;overflow:visible;visibility:visible;fill:none;stroke:#e50083;stroke-width:2;stroke-linecap:butt;stroke-linejoin:miter;stroke-miterlimit:4;stroke-dashoffset:0;stroke-opacity:1;marker:none;enable-background:accumulate"
       id="path6306"
       d="M 472.47141,286.69407 466.30074,262.397 m -45.67718,42.40315 -10.29606,-22.85641 m -37.62001,49.6907 -14.10861,-20.72128 m -28.41979,55.46843 -17.49247,-17.95653 m -18.35604,59.56078 -20.34484,-14.6462 m -7.73455,61.84341 -22.57904,-10.89085 m 3.12195,62.24697 -24.12719,-6.80458 m 13.88359,60.75917 -24.94225,-2.51156 m 24.22339,57.42525 -24.99945,1.85776 m 33.82717,52.34649 -24.29705,6.17064 m 42.40313,45.67721 -22.8564,10.29603 m 49.6907,37.62004 -20.72127,14.10858 m 55.46842,28.41982 -17.95653,17.49244 m 59.56079,18.35607 -14.64621,20.34481 m 61.84342,7.73458 -10.89086,22.57901 m 62.24698,-3.12192 -6.80459,24.12716 m 60.75918,-13.88357 -2.51157,24.94223 m 57.42526,-24.22337 1.85775,24.99943 m 52.3465,-33.82716 6.17063,24.29705 m 45.67722,-42.40313 10.29602,22.8564 m 37.62005,-49.6907 14.10857,20.72128 m 28.41983,-55.46845 17.49243,17.95656 m 18.35608,-59.56081 20.3448,14.64623 m 7.73459,-61.84344 22.57901,10.89088 m -3.12192,-62.247 24.12716,6.80461 m -13.88357,-60.7592 24.94223,2.51159 m -24.22337,-57.42528 24.99943,-1.85773 m -33.82716,-52.34652 24.29705,-6.17061 m -42.40314,-45.67724 22.85641,-10.296 m -49.6907,-37.62007 20.72128,-14.10855 m -55.46845,-28.41985 17.95656,-17.49242 m -59.56081,-18.35609 14.64623,-20.34479 m -61.84345,-7.7346 10.89089,-22.579 m -62.24701,3.12191 6.80462,-24.12715 m -60.75922,13.88356 2.51161,-24.94222 m -57.42529,24.22336 -1.85772,-24.99942 m -25.43683,28.22998 -2.85216,-17.51297 m -50.37594,31.03119 -5.84992,-16.75164 m -44.22211,39.30745 -8.66995,-15.48132 m -36.7246,46.38937 -11.22653,-13.7406 m -28.11125,52.06177 -13.442,-11.58239 m -18.64374,56.15231 -15.24904,-9.07226 m -8.60976,58.53669 -16.59276,-6.28646 m 1.68582,59.14246 -17.4323,-3.30965 m 11.9302,57.95121 -17.74219,-0.2323 m 21.81208,54.99914 -17.51298,2.85215 m 23.11009,24.05702 -17.19776,4.36764 m 25.11887,21.9513 -16.75165,5.84989 m 39.30746,44.22213 -15.48134,8.66993 m 46.38939,36.72461 -13.74062,11.22653 m 52.06179,28.11124 -11.58241,13.442 m 56.15233,18.64374 -9.07228,15.24905 m 58.53671,8.60975 -6.28649,16.59277 m 59.14247,-1.68584 -3.30967,17.43232 m 57.95122,-11.93022 -0.2323,17.74221 m 54.99914,-21.81209 2.85214,17.51299 m 50.37595,-31.0312 5.8499,16.75165 m 44.22212,-39.30746 8.66992,15.48134 m 36.72462,-46.38938 11.22651,13.74062 m 28.11127,-52.06178 13.44198,11.5824 m 18.64376,-56.15232 15.24903,9.07228 m 8.60977,-58.5367 16.59275,6.28648 m -1.68581,-59.14246 17.43229,3.30967 m -11.93018,-57.95122 17.74217,0.2323 m -21.81205,-54.99915 17.51297,-2.85213 m -31.03118,-50.37596 16.75164,-5.84989 m -39.30745,-44.22213 15.48132,-8.66991 m -46.38936,-36.72463 13.74061,-11.2265 m -52.06177,-28.11128 11.5824,-13.44197 m -56.1523,-18.64378 9.07225,-15.24901 m -58.53668,-8.6098 6.28646,-16.59272 m -59.14245,1.68579 3.30966,-17.43227 m -57.95121,11.93015 0.2323,-17.74215 m -33.18437,19.03681 -0.95226,-10.36324 m -4.51876,10.91414 -1.13297,-10.34504 m -4.3276,10.99135 -1.31335,-10.3237 m -4.1351,11.0652 -1.49333,-10.29921 m -9.36061,12.06688 -1.85184,-10.2408 m -3.55035,11.26644 -2.03028,-10.20694 m -3.35318,11.3267 -2.20811,-10.16995 m -3.15497,11.3835 -2.38528,-10.12987 m -8.27329,12.8368 -2.73735,-10.04044 m -2.55489,11.533 -2.91216,-9.99114 m -2.35322,11.57584 -3.08609,-9.93879 m -2.15082,11.61514 -3.25908,-9.88342 m -7.12301,13.50901 -3.60202,-9.76366 m -1.54,11.71179 -3.77186,-9.69931 m -1.33536,11.73689 -3.94057,-9.632 m -1.13031,11.7584 -4.10808,-9.56177 m -5.91852,14.07843 -4.43927,-9.41258 m -0.51338,11.80145 -4.60286,-9.33367 m -0.30735,11.80861 -4.76506,-9.2519 m -0.1012,11.81216 -4.9258,-9.16733 m -4.66899,14.54068 -5.24273,-8.98985 m 0.51713,11.80128 -5.39883,-8.89697 m 0.72301,11.79046 -5.55328,-8.8014 m 0.92869,11.77604 -5.70605,-8.70315 m -3.38392,14.89229 -6.00629,-8.4987 m 1.5437,11.71129 -6.1537,-8.39258 m 1.74786,11.68258 -6.29924,-8.2839 m 1.95152,11.65029 -6.44287,-8.17271 m -2.0731,15.13054 -6.72414,-7.94288 m 2.55853,11.53218 -6.86175,-7.82431 m 2.75942,11.48579 -6.99726,-7.70337 m 2.95948,11.43588 -7.13065,-7.58009 m -0.7465,15.25365 -7.39082,-7.3266 m 3.55389,11.26531 -7.51758,-7.1965 m 3.74999,11.20159 -7.64205,-7.06421 m 3.94494,11.13442 -7.76417,-6.92976 m 0.58579,15.26066 -8.00126,-6.65457 m 4.52221,10.91271 -8.11619,-6.51393 m 4.71199,10.83214 -8.22864,-6.37128 m 4.90035,10.74823 -8.33859,-6.2267 m 1.91361,15.15154 -8.5508,-5.93189 m 5.45611,10.47704 -8.65303,-5.78176 m 5.63815,10.38024 -8.75263,-5.62986 m 5.81847,10.28023 -8.84955,-5.47625 m 3.22687,14.9271 -9.03526,-5.16408 m 6.34849,9.96165 -9.12402,-5.0056 m 6.52138,9.84935 -9.20999,-4.8456 m 6.69231,9.734 -9.29316,-4.68413 m 4.51558,14.58907 -9.45096,-4.35696 m 7.19255,9.37044 -9.52557,-4.19134 m 7.355,9.24349 -9.59727,-4.02446 m 7.51522,9.11369 -9.66605,-3.85635 m 5.76991,14.13999 -9.79472,-3.51667 m 7.98186,8.70791 -9.85462,-3.34519 m 8.13263,8.5673 -9.91149,-3.17269 m 8.28092,8.42402 -9.96537,-2.99924 m 6.98034,13.58331 -10.06394,-2.64963 m 8.71042,7.97912 -10.10866,-2.47358 m 8.84836,7.82588 -10.15029,-2.29677 m 8.98362,7.67024 -10.18886,-2.11929 m 8.13764,12.92324 -10.25657,-1.7624 m 9.3727,7.18958 -10.28578,-1.58313 m 9.49676,7.02492 -10.31184,-1.40338 m 9.61793,6.85808 -10.33479,-1.22321 m 9.23301,12.16482 -10.37114,-0.86178 m 9.96364,6.34534 -10.38461,-0.68064 m 10.07288,6.17048 -10.39491,-0.49929 m 10.17905,5.99372 -10.40207,-0.31781 m 10.25811,11.31381 -10.4068,0.0454 m 10.47877,5.45281 -10.40442,0.22703 m 10.57235,5.26909 -10.39888,0.40859 m 10.66271,5.08374 -10.39018,0.59 m 11.20513,10.3767 -10.36324,0.95226 m 10.91413,4.51877 -10.34503,1.13297 m 10.99134,4.32759 -10.32369,1.31337 m 11.06521,4.13507 -10.29922,1.49333 m 12.06688,9.36062 -10.2408,1.85184 m 11.26643,3.55036 -10.20693,2.03028 m 11.3267,3.35316 -10.16995,2.20814 m 11.3835,3.15494 -10.12987,2.38528 m 12.8368,8.2733 -10.04044,2.73734 m 11.53299,2.55491 -9.99113,2.91216 m 11.57584,2.35321 -9.93879,3.08611 m 11.61515,2.15079 -9.88343,3.25908 m 13.50901,7.12302 -9.76366,3.60201 m 11.71178,1.54002 -9.6993,3.77186 m 11.73689,1.33535 -9.632,3.94059 m 11.75841,1.13028 -9.56178,4.10808 m 14.07842,5.91853 -9.41257,4.43925 m 11.80144,0.51341 -9.33366,4.60286 m 11.80861,0.30734 -9.2519,4.76508 m 11.81217,0.10116 -9.16734,4.92581 m 14.54068,4.66899 -8.98985,5.24272 m 11.80127,-0.5171 -8.89697,5.39882 m 11.79047,-0.72301 -8.80139,5.5533 m 11.77604,-0.92872 -8.70316,5.70605 m 14.89229,3.38392 -8.49871,6.00628 m 11.71129,-1.54367 -8.39257,6.15369 m 11.68258,-1.74786 -8.2839,6.29924 m 11.65029,-1.95153 -8.17273,6.44287 m 15.13055,2.0731 -7.94288,6.72413 m 11.53218,-2.5585 -7.8243,6.86174 m 11.48579,-2.75942 -7.70336,6.99726 m 11.43586,-2.95949 -7.58009,7.13065 m 15.25366,0.74649 -7.32662,7.39082 m 11.26532,-3.55386 -7.19649,7.51756 m 11.20158,-3.74998 -7.06419,7.64203 m 11.13441,-3.94493 -6.92977,7.76417 m 15.26067,-0.58579 -6.65458,8.00125 m 10.91271,-4.52218 -6.51392,8.11617 m 10.83214,-4.71198 -6.37127,8.22863 m 10.74822,-4.90035 -6.22671,8.33859 m 15.15155,-1.91361 -5.93191,8.55079 m 10.47705,-5.45608 -5.78176,8.65301 m 10.38024,-5.63814 -5.62984,8.75262 m 10.28022,-5.81847 -5.47627,8.84955 m 14.92711,-3.22687 -5.16408,9.03525 m 9.96166,-6.34846 -5.0056,9.124 m 9.84935,-6.52138 -4.84559,9.20999 m 9.73399,-6.69232 -4.68414,9.29317 m 14.58907,-4.51558 -4.35696,9.45095 m 9.37045,-7.19252 -4.19134,9.52555 m 9.24349,-7.35499 -4.02445,9.59726 m 9.11368,-7.51522 -3.85637,9.66605 m 14.14,-5.76991 -3.51667,9.79471 m 8.70792,-7.98183 -3.34519,9.8546 m 8.56729,-8.13263 -3.17267,9.91149 m 8.42399,-8.28092 -2.99924,9.96537 m 13.58331,-6.98034 -2.64962,10.06393 m 7.97913,-8.71039 -2.47358,10.10864 m 7.82588,-8.84836 -2.29676,10.15029 m 7.67022,-8.98362 -2.11929,10.18886 m 12.92324,-8.13764 -1.76241,10.25656 m 7.18961,-9.37267 -1.58314,10.28576 m 7.02491,-9.49675 -1.40336,10.31182 m 6.85806,-9.61792 -1.22321,10.33479 m 12.16482,-9.23301 -0.86178,10.37113 m 6.34536,-9.96362 -0.68065,10.3846 m 6.17048,-10.07288 -0.49928,10.39491 m 5.9937,-10.17906 -0.31781,10.40208 m 11.31381,-10.25811 0.0454,10.40679 m 5.45283,-10.47875 0.22702,10.40441 m 5.26909,-10.57234 0.4086,10.39886 m 5.08372,-10.6627 0.59,10.39018 m 10.3767,-11.20513 0.95225,10.36323 m 4.5188,-10.91412 1.13296,10.34503 m 4.3276,-10.99134 1.31336,10.32368 m 4.13506,-11.0652 1.49332,10.29922 m 9.36063,-12.06688 1.85184,10.24079 m 3.55037,-11.26641 2.03028,10.20692 m 3.35317,-11.3267 2.20813,10.16994 m 3.15493,-11.38349 2.38527,10.12987 m 8.27331,-12.8368 2.73734,10.04043 m 2.55493,-11.53298 2.91215,9.99113 m 2.35322,-11.57584 3.08609,9.93878 m 2.15079,-11.61514 3.25908,9.88343 m 7.12302,-13.50901 3.602,9.76365 m 1.54005,-11.71177 3.77185,9.6993 m 1.33536,-11.7369 3.94058,9.632 m 1.13027,-11.7584 4.10807,9.56178 m 5.91854,-14.07842 4.43925,9.41256 m 0.51343,-11.80142 4.60285,9.33365 m 0.30734,-11.80862 4.76506,9.2519 m 0.10117,-11.81216 4.92581,9.16734 m 4.669,-14.54068 5.24271,8.98984 m -0.51708,-11.80126 5.39882,8.89696 m -0.72304,-11.79047 5.5533,8.80139 m -0.92871,-11.77603 5.70604,8.70316 m 3.38393,-14.89229 6.00628,8.4987 m -1.54365,-11.71129 6.15369,8.39258 m -1.7479,-11.68259 6.29926,8.28389 m -1.95153,-11.65027 6.44287,8.17273 m 2.0731,-15.13056 6.72413,7.94289 m -2.55848,-11.53219 6.86174,7.82431 m -2.75945,-11.48579 6.99727,7.70335 m -2.95949,-11.43586 7.13065,7.5801 m 0.7465,-15.25366 7.39081,7.32662 m -3.55384,-11.26533 7.51756,7.1965 m -3.75001,-11.20157 7.64204,7.06417 m -3.94493,-11.1344 7.76417,6.92977 m -0.58578,-15.26067 8.00124,6.65458 m -4.52216,-10.91272 8.11617,6.51392 m -4.71201,-10.83211 8.22864,6.37124 m -4.90035,-10.74821 8.33859,6.22671 m -1.91361,-15.15155 8.55079,5.93191 m -5.45606,-10.47706 8.65301,5.78175 m -5.63817,-10.3802 8.75263,5.62981 m -5.81847,-10.28021 8.84955,5.47626 m -3.22687,-14.9271 9.03525,5.16408 m -6.34844,-9.96167 9.12399,5.0056 m -6.5214,-9.84932 9.20999,4.84556 m -6.69231,-9.73398 9.29317,4.68414 m -4.51558,-14.58907 9.45095,4.35696 m -7.1925,-9.37046 9.52555,4.19134 m -7.35502,-9.24346 9.59726,4.02442 m -7.51521,-9.11367 9.66605,3.85637 m -5.76991,-14.14 9.79471,3.51667 m -7.98182,-8.70793 9.8546,3.34519 m -8.13265,-8.56726 9.91149,3.17265 m -8.28091,-8.42399 9.96537,2.99924 m -6.98034,-13.58331 10.06393,2.64962 m -8.71039,-7.97914 10.10866,2.47358 m -8.84839,-7.82585 10.15028,2.29673 m -8.9836,-7.67021 10.18886,2.11929 m -8.13764,-12.92324 10.25656,1.76241 m -9.37267,-7.18962 10.28577,1.58314 m -9.49677,-7.02488 10.31182,1.40333 m -9.61792,-6.85805 10.33479,1.22321 m -9.233,-12.16482 10.37113,0.86178 m -9.96362,-6.34537 10.38462,0.68065 m -10.0729,-6.17045 10.3949,0.49926 m -10.17905,-5.9937 10.40208,0.31781 m -10.25811,-11.31381 10.40678,-0.0454 m -10.47874,-5.45284 10.40442,-0.22702 m -10.57235,-5.26906 10.39885,-0.40862 m -10.66269,-5.08372 10.39018,-0.59 m -11.20513,-10.3767 10.36323,-0.95225 m -10.91413,-4.51881 10.34506,-1.13296 m -10.99136,-4.32757 10.32367,-1.31337 m -11.06519,-4.13507 10.29922,-1.49332 m -12.06688,-9.36063 10.24079,-1.85184 m -11.26642,-3.55038 10.20693,-2.03028 m -11.32669,-3.35314 10.16991,-2.20814 m -11.38348,-3.15494 10.12988,-2.38527 m -12.8368,-8.27331 10.04043,-2.73734 m -11.53299,-2.55494 9.99114,-2.91215 m -11.57583,-2.35319 9.93876,-3.0861 m -11.61513,-2.1508 9.88343,-3.25908 m -13.50901,-7.12302 9.76365,-3.602 m -11.71178,-1.54006 9.69931,-3.77185 m -11.73688,-1.33533 9.63197,-3.94059 m -11.75839,-1.13028 9.56178,-4.10807 m -14.07843,-5.91854 9.41257,-4.43925 m -11.80143,-0.51344 9.33365,-4.60285 m -11.80859,-0.30732 9.25187,-4.76506 m -11.81215,-0.10118 9.16734,-4.92581 m -14.54069,-4.669 8.98985,-5.24271 m -11.80128,0.51707 8.89698,-5.39882 m -11.79045,0.72304 8.80137,-5.55328 m -11.77603,0.9287 8.70316,-5.70604 m -14.89229,-3.38393 8.4987,-6.00628 m -11.7113,1.54366 8.39258,-6.15371 m -11.68256,1.74789 8.28387,-6.29923 m -11.65027,1.95152 8.17272,-6.44287 m -15.13055,-2.07311 7.94289,-6.72412 m -11.53221,2.55849 7.82433,-6.86176 m -11.48578,2.75945 7.70334,-6.99725 m -11.43586,2.95948 7.5801,-7.13065 m -15.25366,-0.7465 7.32661,-7.39081 m -11.26533,3.55385 7.19651,-7.51758 m -11.20158,3.75001 7.06418,-7.64202 m -11.13441,3.94492 6.92978,-7.76417 m -15.26067,0.58578 6.65458,-8.00123 m -10.91273,4.52216 6.51392,-8.11619 m -10.83211,4.71202 6.37125,-8.22863 m -10.74821,4.90034 6.22671,-8.33859 m -15.15155,1.91361 5.93191,-8.55078 m -10.47707,5.45606 5.78176,-8.65302 m -10.38022,5.63817 5.62983,-8.75261 m -10.28021,5.81845 5.47626,-8.84955 m -14.92711,3.22688 5.16409,-9.03525 m -9.96168,6.34844 5.00561,-9.124 m -9.84933,6.52141 4.84557,-9.20998 m -9.73398,6.69229 4.68414,-9.29316 m -14.58907,4.51558 4.35696,-9.45095 m -9.37047,7.1925 4.19135,-9.52556 m -9.24347,7.35503 4.02443,-9.59725 m -9.11367,7.51519 3.85637,-9.66604 m -14.14,5.76992 3.51667,-9.79472 m -8.70794,7.98182 3.34519,-9.85461 m -8.56726,8.13266 3.17266,-9.91148 m -8.42399,8.2809 2.99923,-9.96536 m -13.5833,6.98034 2.64962,-10.06394 m -7.97915,8.71039 2.47358,-10.10867 m -7.82584,8.8484 2.29674,-10.15027 m -7.67021,8.98359 2.11929,-10.18885 m -12.92325,8.13765 1.76241,-10.25658 m -7.18963,9.37267 1.58315,-10.28579 m -7.02489,9.49679 1.40336,-10.31181 m -6.85806,9.6179 1.22321,-10.33477 m -12.16483,9.23301 0.86178,-10.37115 m -6.34538,9.96362 0.68066,-10.38463 m -6.17045,10.07292 0.49928,-10.3949 m -5.99371,10.17904 0.31782,-10.40207 m -11.31383,10.25812 -0.0454,-10.4068 m -5.45285,10.47874 -0.22701,-10.40442 m -5.26906,10.57236 -0.4086,-10.39885 m -5.08373,10.66268 -0.58999,-10.39017"
       inkscape:connector-curvature="0" />
    <path
       style="color:#000000;font-style:normal;font-variant:normal;font-weight:normal;font-stretch:semi-condensed;font-size:18px;line-height:125%;font-family:'DejaVu Sans';-inkscape-font-specification:'DejaVu Sans Semi-Condensed';text-align:center;writing-mode:lr-tb;text-anchor:middle;display:inline;overflow:visible;visibility:visible;fill:none;stroke:#e50083;stroke-width:2;stroke-linecap:butt;stroke-linejoin:miter;stroke-miterlimit:4;stroke-dasharray:none;stroke-dashoffset:0;stroke-opacity:1;marker:none;enable-background:accumulate"
       id="path7048"
       d="m 531.89383,348.08527 9.4018,126.5166 m -13.41507,-180.52157 2.51979,33.90784"
       inkscape:connector-curvature="0" />
    <path
       style="color:#000000;font-style:normal;font-variant:normal;font-weight:normal;font-stretch:semi-condensed;font-size:18px;line-height:125%;font-family:'DejaVu Sans';-inkscape-font-specification:'DejaVu Sans Semi-Condensed';text-align:center;writing-mode:lr-tb;text-anchor:middle;display:inline;overflow:visible;visibility:visible;fill:none;stroke:#e50083;stroke-width:2;stroke-linecap:butt;stroke-linejoin:miter;stroke-miterlimit:4;stroke-dasharray:none;stroke-dashoffset:0;stroke-opacity:1;marker:none;enable-background:accumulate"
       id="path7050"
       d="M 252.0491,614.19847 432.57067,600.7834"
       inkscape:connector-curvature="0" />
    <path
       style="color:#000000;font-style:normal;font-variant:normal;font-weight:normal;font-stretch:semi-condensed;font-size:18px;line-height:125%;font-family:'DejaVu Sans';-inkscape-font-specification:'DejaVu Sans Semi-Condensed';text-align:center;writing-mode:lr-tb;text-anchor:middle;display:inline;overflow:visible;visibility:visible;fill:none;stroke:#e50083;stroke-width:2;stroke-linecap:butt;stroke-linejoin:miter;stroke-miterlimit:4;stroke-dasharray:none;stroke-dashoffset:0;stroke-opacity:1;marker:none;enable-background:accumulate"
       id="path7052"
       d="M 572.16727,890.02994 558.7522,709.50837"
       inkscape:connector-curvature="0" />
    <path
       style="color:#000000;font-style:normal;font-variant:normal;font-weight:normal;font-stretch:semi-condensed;font-size:18px;line-height:125%;font-family:'DejaVu Sans';-inkscape-font-specification:'DejaVu Sans Semi-Condensed';text-align:center;writing-mode:lr-tb;text-anchor:middle;display:inline;overflow:visible;visibility:visible;fill:none;stroke:#e50083;stroke-width:2;stroke-linecap:butt;stroke-linejoin:miter;stroke-miterlimit:4;stroke-dasharray:none;stroke-dashoffset:0;stroke-opacity:1;marker:none;enable-background:accumulate"
       id="path7054"
       d="M 847.99874,569.91177 667.47716,583.32684"
       inkscape:connector-curvature="0" />
    <path
       style="color:#000000;font-style:normal;font-variant:normal;font-weight:normal;font-stretch:semi-condensed;font-size:18px;line-height:125%;font-family:'DejaVu Sans';-inkscape-font-specification:'DejaVu Sans Semi-Condensed';text-align:center;writing-mode:lr-tb;text-anchor:middle;display:inline;overflow:visible;visibility:visible;fill:none;stroke:#e50083;stroke-width:2;stroke-linecap:butt;stroke-linejoin:miter;stroke-miterlimit:4;stroke-dashoffset:0;stroke-opacity:1;marker:none;enable-background:accumulate"
       id="path7070"
       d="m 470.17404,304.12576 9.08647,32.76472 m -63.72442,-11.6543 15.30396,30.36247 m -64.7736,1.00166 20.93332,26.7934 m -63.33359,13.61912 25.75823,22.19469 m -59.45969,25.71319 29.59326,16.74305 m -53.3008,36.81913 32.29104,10.64798 m -45.09358,46.51013 33.74789,4.14371 m -25.10798,112.1203 32.76471,-9.08647 m -11.65429,63.72442 30.36246,-15.30396 m 1.00167,64.7736 26.7934,-20.93332 m 13.61913,63.33359 22.19467,-25.75823 m 25.71322,59.45969 16.74303,-29.59326 m 36.81915,53.3008 10.64796,-32.29104 m 46.51015,45.09357 4.14369,-33.74788 m 112.12032,25.10797 -9.08649,-32.7647 m 63.72444,11.65428 -15.30398,-30.36245 m 64.77362,-1.00168 -20.93333,-26.79338 m 63.33359,-13.61915 -25.75823,-22.19466 m 59.45969,-25.71323 -29.59325,-16.74301 m 53.30078,-36.81918 -32.29102,-10.64793 m 45.09356,-46.51018 -33.74787,-4.14366 m 25.10794,-112.12034 -32.76467,9.0865 m 11.65424,-63.72444 -30.36241,15.30398 m -1.00171,-64.77362 -26.79336,20.93333 m -13.61917,-63.33359 -22.19464,25.75823 m -25.71325,-59.45969 -16.74299,29.59325 m -36.8192,-53.30078 -10.64792,32.29102 m -46.51019,-45.09356 -4.14365,33.74787 m -83.51379,-31.54816 2.91571,16.74945 m -59.35974,-1.09613 6.12735,15.85878 m -58.43301,10.50544 9.10351,14.35867 m -55.26073,21.70329 11.72983,12.30678 m -49.96481,32.0671 13.90538,9.78192 m -42.74876,41.1986 15.54654,6.88116 m -33.88991,48.74685 16.59027,3.71595 m -23.72869,54.42179 16.99644,0.40795 m -12.65558,58.00533 16.74945,-2.91573 m -1.09613,59.35976 15.85878,-6.12737 m 10.50544,58.43303 14.35866,-9.10353 m 21.7033,55.26075 12.30676,-11.72985 m 32.06712,49.96483 9.78191,-13.9054 m 41.19861,42.74878 6.88115,-15.54656 m 48.74685,33.88993 3.71595,-16.59029 m 54.4218,23.7287 0.40794,-16.99644 m 58.00534,12.65559 -2.91574,-16.74946 m 59.35977,1.09614 -6.12738,-15.85879 m 58.43304,-10.50543 -9.10354,-14.35867 m 55.26076,-21.70329 -11.72986,-12.30677 m 49.96484,-32.06711 -13.90542,-9.78191 m 42.74881,-41.19861 -15.54658,-6.88114 m 33.88994,-48.74687 -16.5903,-3.71593 m 23.72872,-54.42181 -16.99647,-0.40793 m 12.65562,-58.00535 -16.74947,2.91575 m 1.09615,-59.35978 -15.8588,6.12739 m -10.50542,-58.43305 -14.35868,9.10355 m -21.7033,-55.26077 -12.30676,11.72987 m -32.06711,-49.96485 -9.78191,13.90542 m -41.19861,-42.7488 -6.88114,15.54658 m -48.74687,-33.88995 -3.71593,16.59031 m -54.42181,-23.72872 -0.40793,16.99646 m -43.50219,-14.8151 1.38224,11.15604 m -30.27025,-6.12701 2.46906,10.96684 m -30.72504,-3.13049 3.53211,10.67202 m -30.88393,-0.10384 4.56113,10.27442 m -30.74538,2.92382 5.54623,9.77786 m -30.31075,5.92333 6.47793,9.18715 m -29.58421,8.86578 7.34723,8.50796 m -28.57276,11.72285 8.14578,7.74684 m -27.28612,14.46702 8.86587,6.91112 m -25.73672,17.07185 9.50059,6.00884 m -23.93946,19.51228 10.04381,5.04869 m -21.91163,21.7648 10.4903,4.03992 m -19.67281,23.80771 10.83577,2.99224 m -17.24451,25.62133 11.07688,1.91574 m -14.65015,27.18823 11.21133,0.82078 m -11.9147,28.49327 11.2378,-0.28207 m -9.06451,29.52391 11.15605,-1.38221 m -6.12701,30.27022 10.96684,-2.46903 m -3.1305,30.72501 10.67202,-3.53208 m -0.10385,30.8839 10.27443,-4.5611 m 2.9238,30.74537 9.77789,-5.54622 m 5.92329,30.31073 9.18719,-6.47791 m 8.86574,29.5842 8.508,-7.34722 m 11.72281,28.57275 7.74688,-8.14577 m 14.46698,27.28613 6.91116,-8.86588 m 17.07182,25.73673 6.00887,-9.5006 m 19.51225,23.93947 5.04872,-10.04382 m 21.76477,21.91166 4.03995,-10.49033 m 23.80768,19.67283 2.99226,-10.83579 m 25.62132,17.24453 1.91576,-11.0769 m 27.1882,14.65017 0.82081,-11.21135 m 28.49325,11.91472 -0.28205,-11.23782 m 29.5239,9.06453 -1.3822,-11.15607 m 30.27022,6.12703 -2.46903,-10.96686 m 30.72501,3.13052 -3.53208,-10.67205 m 30.88392,0.10388 -4.56112,-10.27446 m 30.74538,-2.92378 -5.54623,-9.77791 m 30.31074,-5.92328 -6.47792,-9.18721 m 29.58422,-8.86572 -7.34724,-8.50802 m 28.57277,-11.72279 -8.1458,-7.7469 m 27.28615,-14.46697 -8.8659,-6.91117 m 25.73675,-17.07181 -9.50062,-6.00888 m 23.9395,-19.51225 -10.04386,-5.04872 m 21.91169,-21.76477 -10.49035,-4.03995 m 19.67286,-23.80768 -10.83582,-2.99226 m 17.24456,-25.62132 -11.07693,-1.91576 m 14.6502,-27.1882 -11.21138,-0.82081 m 11.91475,-28.49325 -11.23785,0.28205 m 9.06455,-29.5239 -11.15609,1.3822 m 6.12706,-30.27023 -10.96689,2.46904 m 3.13055,-30.72503 -10.67208,3.5321 m 0.10391,-30.88393 -10.27449,4.56114 m -2.92375,-30.7454 -9.77794,5.54625 m -5.92325,-30.31077 -9.18722,6.47795 m -8.86571,-29.58425 -8.50803,7.34727 m -11.72279,-28.5728 -7.7469,8.14583 m -14.46696,-27.28619 -6.91118,8.86594 m -17.07181,-25.73678 -6.00888,9.50065 m -19.51225,-23.93953 -5.04871,10.04388 m -21.76479,-21.91171 -4.03993,10.49038 m -23.80771,-19.67289 -2.99224,10.83585 m -25.62134,-17.24459 -1.91573,11.07696 m -27.18824,-14.65023 -0.82077,11.21141 m -28.4933,-11.91477 0.2821,11.23787"
       inkscape:connector-curvature="0" />
    <path
       style="color:#000000;font-style:normal;font-variant:normal;font-weight:normal;font-stretch:semi-condensed;font-size:18px;line-height:125%;font-family:'DejaVu Sans';-inkscape-font-specification:'DejaVu Sans Semi-Condensed';text-align:center;writing-mode:lr-tb;text-anchor:middle;display:inline;overflow:visible;visibility:visible;fill:none;stroke:#e50083;stroke-width:2;stroke-linecap:butt;stroke-linejoin:miter;stroke-miterlimit:4;stroke-dasharray:none;stroke-dashoffset:0;stroke-opacity:1;marker:none;enable-background:accumulate"
       id="path7846"
       d="m 190.3474,618.7837 -58.52848,4.34942"
       inkscape:connector-curvature="0" />
    <path
       style="color:#000000;font-style:normal;font-variant:normal;font-weight:normal;font-stretch:semi-condensed;font-size:18px;line-height:125%;font-family:'DejaVu Sans';-inkscape-font-specification:'DejaVu Sans Semi-Condensed';text-align:center;writing-mode:lr-tb;text-anchor:middle;display:inline;overflow:visible;visibility:visible;fill:none;stroke:#e50083;stroke-width:2;stroke-linecap:butt;stroke-linejoin:miter;stroke-miterlimit:4;stroke-dasharray:none;stroke-dashoffset:0;stroke-opacity:1;marker:none;enable-background:accumulate"
       id="path7848"
       d="m 576.7525,951.73163 4.34942,58.52857"
       inkscape:connector-curvature="0" />
    <path
       style="color:#000000;font-style:normal;font-variant:normal;font-weight:normal;font-stretch:semi-condensed;font-size:18px;line-height:125%;font-family:'DejaVu Sans';-inkscape-font-specification:'DejaVu Sans Semi-Condensed';text-align:center;writing-mode:lr-tb;text-anchor:middle;display:inline;overflow:visible;visibility:visible;fill:none;stroke:#e50083;stroke-width:2;stroke-linecap:butt;stroke-linejoin:miter;stroke-miterlimit:4;stroke-dasharray:none;stroke-dashoffset:0;stroke-opacity:1;marker:none;enable-background:accumulate"
       id="path7850"
       d="m 909.70043,565.32654 58.52854,-4.34942"
       inkscape:connector-curvature="0" />
    <path
       style="color:#000000;font-style:normal;font-variant:normal;font-weight:normal;font-stretch:semi-condensed;font-size:18px;line-height:125%;font-family:'DejaVu Sans';-inkscape-font-specification:'DejaVu Sans Semi-Condensed';text-align:center;writing-mode:lr-tb;text-anchor:middle;display:inline;overflow:visible;visibility:visible;fill:none;stroke:#e50083;stroke-width:3;stroke-linecap:butt;stroke-linejoin:miter;stroke-miterlimit:4;stroke-dasharray:none;stroke-dashoffset:0;stroke-opacity:1;marker:none;enable-background:accumulate"
       id="path7844"
       d="m 523.29534,232.37861 -4.34942,-58.52849 m 9.63536,18.01351 -9.6129,-17.7113 v 0 l -6.88942,18.93764"
       inkscape:connector-curvature="0" />
    <text
       style="font-style:normal;font-variant:normal;font-weight:normal;font-stretch:semi-condensed;font-size:18px;line-height:125%;font-family:'DejaVu Sans';-inkscape-font-specification:'DejaVu Sans Semi-Condensed';text-align:center;writing-mode:lr-tb;text-anchor:middle;fill:#e50083;fill-opacity:1;stroke:none"
       xml:space="preserve"
       id="text8172"
       transform="rotate(-4.25)"
       y="286.45938"
       x="504.62631"><tspan
         style="font-style:normal;font-variant:normal;font-weight:normal;font-stretch:semi-condensed;font-size:18px;line-height:125%;font-family:'DejaVu Sans';-inkscape-font-specification:'DejaVu Sans Semi-Condensed';text-align:center;writing-mode:lr-tb;text-anchor:middle;fill:#e50083;fill-opacity:1"
         id="tspan8174"
         y="286.45938"
         x="504.62631">0</tspan></text>
    <text
       style="font-style:normal;font-variant:normal;font-weight:normal;font-stretch:semi-condensed;font-size:18px;line-height:125%;font-family:'DejaVu Sans';-inkscape-font-specification:'DejaVu Sans Semi-Condensed';text-align:center;writing-mode:lr-tb;text-anchor:middle;fill:#e50083;fill-opacity:1;stroke:none"
       xml:space="preserve"
       id="text8176"
       transform="rotate(25.750003)"
       y="-49.296841"
       x="753.49408"><tspan
         style="font-style:normal;font-variant:normal;font-weight:normal;font-stretch:semi-condensed;font-size:18px;line-height:125%;font-family:'DejaVu Sans';-inkscape-font-specification:'DejaVu Sans Semi-Condensed';text-align:center;writing-mode:lr-tb;text-anchor:middle;fill:#e50083;fill-opacity:1"
         id="tspan8178"
         y="-49.296841"
         x="753.49408">30</tspan></text>
    <text
       style="font-style:normal;font-variant:normal;font-weight:normal;font-stretch:semi-condensed;font-size:18px;line-height:125%;font-family:'DejaVu Sans';-inkscape-font-specification:'DejaVu Sans Semi-Condensed';text-align:center;writing-mode:lr-tb;text-anchor:middle;fill:#e50083;fill-opacity:1;stroke:none"
       xml:space="preserve"
       id="text8180"
       transform="rotate(55.750011)"
       y="-465.80295"
       x="799.17841"><tspan
         style="font-style:normal;font-variant:normal;font-weight:normal;font-stretch:semi-condensed;font-size:18px;line-height:125%;font-family:'DejaVu Sans';-inkscape-font-specification:'DejaVu Sans Semi-Condensed';text-align:center;writing-mode:lr-tb;text-anchor:middle;fill:#e50083;fill-opacity:1"
         id="tspan8182"
         y="-465.80295"
         x="799.17841">60</tspan></text>
    <text
       style="font-style:normal;font-variant:normal;font-weight:normal;font-stretch:semi-condensed;font-size:18px;line-height:125%;font-family:'DejaVu Sans';-inkscape-font-specification:'DejaVu Sans Semi-Condensed';text-align:center;writing-mode:lr-tb;text-anchor:middle;fill:#e50083;fill-opacity:1;stroke:none"
       xml:space="preserve"
       id="text8184"
       transform="rotate(85.75001)"
       y="-846.7832"
       x="632.02551"><tspan
         style="font-style:normal;font-variant:normal;font-weight:normal;font-stretch:semi-condensed;font-size:18px;line-height:125%;font-family:'DejaVu Sans';-inkscape-font-specification:'DejaVu Sans Semi-Condensed';text-align:center;writing-mode:lr-tb;text-anchor:middle;fill:#e50083;fill-opacity:1"
         id="tspan8186"
         y="-846.7832"
         x="632.02551">90</tspan></text>
    <text
       style="font-style:normal;font-variant:normal;font-weight:normal;font-stretch:semi-condensed;font-size:18px;line-height:125%;font-family:'DejaVu Sans';-inkscape-font-specification:'DejaVu Sans Semi-Condensed';text-align:center;writing-mode:lr-tb;text-anchor:middle;fill:#e50083;fill-opacity:1;stroke:none"
       xml:space="preserve"
       id="text8188"
       transform="rotate(115.75)"
       y="-1098.624"
       x="295.87531"><tspan
         style="font-style:normal;font-variant:normal;font-weight:normal;font-stretch:semi-condensed;font-size:18px;line-height:125%;font-family:'DejaVu Sans';-inkscape-font-specification:'DejaVu Sans Semi-Condensed';text-align:center;writing-mode:lr-tb;text-anchor:middle;fill:#e50083;fill-opacity:1"
         id="tspan8190"
         y="-1098.624"
         x="295.87531">120</tspan></text>
    <text
       style="font-style:normal;font-variant:normal;font-weight:normal;font-stretch:semi-condensed;font-size:18px;line-height:125%;font-family:'DejaVu Sans';-inkscape-font-specification:'DejaVu Sans Semi-Condensed';text-align:center;writing-mode:lr-tb;text-anchor:middle;fill:#e50083;fill-opacity:1;stroke:none"
       xml:space="preserve"
       id="text8192"
       transform="rotate(145.74999)"
       y="-1143.0201"
       x="-121.17637"><tspan
         style="font-style:normal;font-variant:normal;font-weight:normal;font-stretch:semi-condensed;font-size:18px;line-height:125%;font-family:'DejaVu Sans';-inkscape-font-specification:'DejaVu Sans Semi-Condensed';text-align:center;writing-mode:lr-tb;text-anchor:middle;fill:#e50083;fill-opacity:1"
         id="tspan8194"
         y="-1143.0201"
         x="-121.17637">150</tspan></text>
    <text
       style="font-style:normal;font-variant:normal;font-weight:normal;font-stretch:semi-condensed;font-size:18px;line-height:125%;font-family:'DejaVu Sans';-inkscape-font-specification:'DejaVu Sans Semi-Condensed';text-align:center;writing-mode:lr-tb;text-anchor:middle;fill:#e50083;fill-opacity:1;stroke:none"
       xml:space="preserve"
       id="text8196"
       transform="rotate(175.75)"
       y="-974.36609"
       x="-505.26907"><tspan
         style="font-style:normal;font-variant:normal;font-weight:normal;font-stretch:semi-condensed;font-size:18px;line-height:125%;font-family:'DejaVu Sans';-inkscape-font-specification:'DejaVu Sans Semi-Condensed';text-align:center;writing-mode:lr-tb;text-anchor:middle;fill:#e50083;fill-opacity:1"
         id="tspan8198"
         y="-974.36609"
         x="-505.26907">180</tspan></text>
    <text
       style="font-style:normal;font-variant:normal;font-weight:normal;font-stretch:semi-condensed;font-size:18px;line-height:125%;font-family:'DejaVu Sans';-inkscape-font-specification:'DejaVu Sans Semi-Condensed';text-align:center;writing-mode:lr-tb;text-anchor:middle;fill:#e50083;fill-opacity:1;stroke:none"
       xml:space="preserve"
       id="text8200"
       transform="rotate(-154.25)"
       y="-639.94153"
       x="-753.0387"><tspan
         style="font-style:normal;font-variant:normal;font-weight:normal;font-stretch:semi-condensed;font-size:18px;line-height:125%;font-family:'DejaVu Sans';-inkscape-font-specification:'DejaVu Sans Semi-Condensed';text-align:center;writing-mode:lr-tb;text-anchor:middle;fill:#e50083;fill-opacity:1"
         id="tspan8202"
         y="-639.94153"
         x="-753.0387">210</tspan></text>
    <text
       style="font-style:normal;font-variant:normal;font-weight:normal;font-stretch:semi-condensed;font-size:18px;line-height:125%;font-family:'DejaVu Sans';-inkscape-font-specification:'DejaVu Sans Semi-Condensed';text-align:center;writing-mode:lr-tb;text-anchor:middle;fill:#e50083;fill-opacity:1;stroke:none"
       xml:space="preserve"
       id="text8204"
       transform="rotate(-124.25)"
       y="-222.81723"
       x="-799.6864"><tspan
         style="font-style:normal;font-variant:normal;font-weight:normal;font-stretch:semi-condensed;font-size:18px;line-height:125%;font-family:'DejaVu Sans';-inkscape-font-specification:'DejaVu Sans Semi-Condensed';text-align:center;writing-mode:lr-tb;text-anchor:middle;fill:#e50083;fill-opacity:1"
         id="tspan8206"
         y="-222.81723"
         x="-799.6864">240</tspan></text>
    <text
       style="font-style:normal;font-variant:normal;font-weight:normal;font-stretch:semi-condensed;font-size:18px;line-height:125%;font-family:'DejaVu Sans';-inkscape-font-specification:'DejaVu Sans Semi-Condensed';text-align:center;writing-mode:lr-tb;text-anchor:middle;fill:#e50083;fill-opacity:1;stroke:none"
       xml:space="preserve"
       id="text8208"
       transform="rotate(-94.25001)"
       y="160.51924"
       x="-629.65771"><tspan
         style="font-style:normal;font-variant:normal;font-weight:normal;font-stretch:semi-condensed;font-size:18px;line-height:125%;font-family:'DejaVu Sans';-inkscape-font-specification:'DejaVu Sans Semi-Condensed';text-align:center;writing-mode:lr-tb;text-anchor:middle;fill:#e50083;fill-opacity:1"
         id="tspan8210"
         y="160.51924"
         x="-629.65771">270</tspan></text>
    <text
       style="font-style:normal;font-variant:normal;font-weight:normal;font-stretch:semi-condensed;font-size:18px;line-height:125%;font-family:'DejaVu Sans';-inkscape-font-specification:'DejaVu Sans Semi-Condensed';text-align:center;writing-mode:lr-tb;text-anchor:middle;fill:#e50083;fill-opacity:1;stroke:none"
       xml:space="preserve"
       id="text8212"
       transform="rotate(-64.250004)"
       y="409.79169"
       x="-294.48572"><tspan
         style="font-style:normal;font-variant:normal;font-weight:normal;font-stretch:semi-condensed;font-size:18px;line-height:125%;font-family:'DejaVu Sans';-inkscape-font-specification:'DejaVu Sans Semi-Condensed';text-align:center;writing-mode:lr-tb;text-anchor:middle;fill:#e50083;fill-opacity:1"
         id="tspan8214"
         y="409.79169"
         x="-294.48572">300</tspan></text>
    <text
       style="font-style:normal;font-variant:normal;font-weight:normal;font-stretch:semi-condensed;font-size:18px;line-height:125%;font-family:'DejaVu Sans';-inkscape-font-specification:'DejaVu Sans Semi-Condensed';text-align:center;writing-mode:lr-tb;text-anchor:middle;fill:#e50083;fill-opacity:1;stroke:none"
       xml:space="preserve"
       id="text8216"
       transform="rotate(-34.250005)"
       y="455.12396"
       x="120.63653"><tspan
         style="font-style:normal;font-variant:normal;font-weight:normal;font-stretch:semi-condensed;font-size:18px;line-height:125%;font-family:'DejaVu Sans';-inkscape-font-specification:'DejaVu Sans Semi-Condensed';text-align:center;writing-mode:lr-tb;text-anchor:middle;fill:#e50083;fill-opacity:1"
         id="tspan8218"
         y="455.12396"
         x="120.63653">330</tspan></text>
    <path
       style="font-style:normal;font-variant:normal;font-weight:normal;font-stretch:semi-condensed;font-size:18px;line-height:125%;font-family:'DejaVu Sans';-inkscape-font-specification:'DejaVu Sans Semi-Condensed';text-align:center;writing-mode:lr-tb;text-anchor:middle;fill:#e50083;fill-opacity:1;stroke:none"
       id="text8238"
       d="m 488.90991,339.57002 2.29694,-0.50385 4.60814,7.11539 1.222,-8.39426 2.29695,-0.50385 2.49916,11.39318 -1.50333,0.32976 -2.1945,-10.00433 -1.22387,8.45867 -1.54911,0.3398 -4.65205,-7.16975 2.19451,10.00433 -1.49569,0.32809 -2.49915,-11.39318 m 18.18312,-2.06817 -1.14815,6.07934 4.22965,-0.71143 -3.0815,-5.36791 m -1.13617,-1.38542 1.76428,-0.29676 6.31845,10.76514 -1.6179,0.27213 -1.54409,-2.7745 -5.18497,0.87211 -0.55148,3.12698 -1.641,0.27602 2.45671,-12.24112 m 17.18224,7.67787 -0.37655,-3.11011 -2.55943,0.30987 -0.15584,-1.28747 4.11061,-0.49767 0.6019,4.9715 c -0.55302,0.50241 -1.18058,0.90891 -1.8827,1.21951 -0.70277,0.30543 -1.4678,0.50822 -2.29509,0.60838 -1.8097,0.21912 -3.29029,-0.13678 -4.44176,-1.06762 -1.14694,-0.93665 -1.83465,-2.34861 -2.06313,-4.23587 -0.22907,-1.89242 0.10178,-3.42769 0.99268,-4.60583 0.89544,-1.1839 2.24802,-1.88541 4.05771,-2.10452 0.75491,-0.0914 1.4823,-0.085 2.18218,0.0191 0.70505,0.10351 1.36645,0.3015 1.98421,0.59395 l 0.20194,1.6675 c -0.63859,-0.42109 -1.29864,-0.71628 -1.98017,-0.88561 -0.68155,-0.1693 -1.38168,-0.21045 -2.10038,-0.12345 -1.41674,0.17157 -2.434,0.69604 -3.05176,1.57351 -0.61259,0.87687 -0.82405,2.09864 -0.63437,3.66532 0.18904,1.56152 0.68565,2.69494 1.4898,3.40028 0.80932,0.70471 1.92234,0.97131 3.33908,0.79978 0.55325,-0.067 1.0414,-0.17335 1.46447,-0.31895 0.42242,-0.15082 0.79465,-0.34803 1.11668,-0.59163 m 3.79169,-10.4358 2.11945,-0.15349 5.8611,9.36005 -0.70269,-9.73248 1.52726,-0.11048 0.83997,11.63378 -2.11945,0.15349 -5.8611,-9.36006 0.70269,9.73247 -1.52726,0.11049 -0.83997,-11.63378 m 12.45502,-0.79901 7.37207,-0.20786 0.0374,1.32759 -5.79457,0.16339 0.0973,3.45175 5.55247,-0.15656 0.0375,1.3276 -5.55248,0.15655 0.11912,4.22489 5.93514,-0.16735 0.0374,1.3276 -7.51264,0.21183 -0.32875,-11.65943 m 8.97031,-0.2424 9.86652,0.11481 -0.0155,1.32803 -4.14034,-0.0482 -0.12027,10.33525 -1.58583,-0.0185 0.12026,-10.33523 -4.14034,-0.0482 0.0155,-1.32803 m 11.73571,0.22405 1.57682,0.0643 -0.47557,11.65436 -1.57681,-0.0643 0.47556,-11.65436 m 13.7352,1.74416 -0.12117,1.65965 c -0.49381,-0.53215 -1.03309,-0.94231 -1.61782,-1.23044 -0.57955,-0.28776 -1.20697,-0.45628 -1.88224,-0.50559 -1.3298,-0.0971 -2.3777,0.23635 -3.14369,1.0003 -0.76562,0.75877 -1.20455,1.90693 -1.31682,3.4445 -0.11188,1.53238 0.15561,2.73213 0.80255,3.59925 0.64728,0.86192 1.63582,1.34142 2.96563,1.43852 0.67527,0.0493 1.32051,-0.0263 1.93571,-0.22688 0.62038,-0.20014 1.2135,-0.52762 1.77938,-0.98242 l -0.12003,1.64407 c -0.57794,0.3338 -1.1828,0.57164 -1.81459,0.71351 -0.62661,0.14223 -1.28275,0.18838 -1.96842,0.13825 -1.76094,-0.12857 -3.10862,-0.76746 -4.04304,-1.91668 -0.93405,-1.15441 -1.33299,-2.66403 -1.19684,-4.52886 0.13654,-1.87001 0.75052,-3.30568 1.84195,-4.307 1.09182,-1.00649 2.51819,-1.44545 4.27914,-1.3169 0.69605,0.0508 1.34373,0.19213 1.94304,0.42387 0.60487,0.22695 1.16395,0.54454 1.67725,0.95278"
       inkscape:connector-curvature="0" />
    <path
       style="font-style:normal;font-variant:normal;font-weight:normal;font-stretch:semi-condensed;font-size:18px;line-height:125%;font-family:'DejaVu Sans';-inkscape-font-specification:'DejaVu Sans Semi-Condensed';text-align:center;writing-mode:lr-tb;text-anchor:middle;fill:#e50083;fill-opacity:1;stroke:none"
       id="text8247"
       d="m 480.77571,535.20195 -11.82347,-4.01078 1.05151,-1.26951 9.92013,3.4183 -5.20081,-9.11609 1.04653,-1.26351 6.14732,10.86378 -1.14121,1.37781 m 0.34505,-15.21681 2.46737,5.67351 3.09844,-2.96576 -5.56581,-2.70775 m -1.71841,-0.50728 1.29243,-1.23708 11.27666,5.35237 -1.1852,1.13445 -2.83655,-1.42689 -3.79827,3.63563 1.30145,2.89625 -1.20213,1.15065 -4.84839,-11.50538 m 15.08835,-4.61465 c 0.33986,-0.11059 0.74924,-0.11053 1.22813,8e-5 0.48305,0.10753 1.05018,0.32776 1.7014,0.6607 l 3.18958,1.59741 -1.3589,1.01364 -2.98514,-1.50624 c -0.77605,-0.39578 -1.38649,-0.58696 -1.83132,-0.57354 -0.44066,0.0103 -0.91147,0.20231 -1.41245,0.57599 l -1.37769,1.02766 2.9475,3.95146 -1.26498,0.94358 -6.97401,-9.34952 2.85558,-2.13005 c 1.06876,-0.79719 2.03275,-1.16862 2.89198,-1.11431 0.85924,0.0543 1.62517,0.53239 2.29782,1.43413 0.43909,0.58867 0.66567,1.17989 0.67974,1.77367 0.0182,0.59068 -0.1775,1.15579 -0.58724,1.69534 m -6.0975,-1.56282 2.4757,3.31898 1.59061,-1.18647 c 0.60952,-0.45465 0.96444,-0.93706 1.06473,-1.44722 0.10135,-0.51744 -0.0519,-1.04961 -0.45989,-1.59652 -0.40795,-0.54689 -0.87124,-0.84133 -1.38989,-0.88333 -0.51757,-0.0493 -1.08113,0.15345 -1.69065,0.60809 l -1.59061,1.18647 m 17.7608,-11.0195 -0.77163,7.35186 3.56192,-1.7855 -2.79029,-5.56636 m -0.98633,-1.04365 1.77397,-0.88926 3.40646,6.79557 1.48762,-0.7457 0.58817,1.17333 -1.48763,0.74571 1.23235,2.45841 -1.40381,0.7037 -1.23235,-2.45841 -4.70731,2.35966 -0.68269,-1.3619 1.02522,-8.78111 m 9.21569,-3.14541 c -0.38961,0.14772 -0.66663,0.40873 -0.83107,0.78301 -0.16629,0.36942 -0.17557,0.74892 -0.0278,1.13851 0.14589,0.38474 0.40352,0.66025 0.77294,0.82652 0.36757,0.16144 0.74615,0.16828 1.13575,0.0205 0.38959,-0.14772 0.66847,-0.40386 0.8366,-0.7684 0.16628,-0.36941 0.17649,-0.74647 0.0306,-1.13122 -0.14589,-0.38472 -0.40689,-0.66174 -0.78302,-0.83106 -0.37126,-0.17114 -0.74925,-0.18379 -1.13397,-0.0379 m -0.35732,-0.94236 c 0.31168,-0.11812 0.63427,-0.17085 0.96776,-0.15805 0.33165,0.008 0.64465,0.0842 0.939,0.22882 0.30712,0.13422 0.5693,0.31889 0.78657,0.55399 0.21726,0.23513 0.38683,0.51341 0.50871,0.83481 0.24375,0.64285 0.22411,1.27415 -0.0589,1.89391 -0.28001,0.61307 -0.74629,1.04332 -1.39887,1.29075 -0.65745,0.2493 -1.28842,0.23789 -1.89291,-0.0342 -0.60449,-0.2721 -1.03138,-0.73687 -1.28067,-1.39434 -0.24744,-0.65256 -0.23301,-1.29026 0.0433,-1.91306 0.27631,-0.62279 0.73832,-1.05698 1.38603,-1.30259 m 9.5166,7.83626 2.49133,-0.66336 -2.2896,-8.59884 -2.56552,1.26522 -0.36988,-1.3891 2.55042,-1.2612 1.52499,-0.40605 2.65948,9.98793 2.49132,-0.66335 0.34173,1.2834 -6.49254,1.72876 -0.34173,-1.28341 m 8.28441,-12.61897 6.12889,-0.90474 0.19391,1.31389 -4.69908,0.69367 0.41758,2.82872 c 0.21529,-0.11076 0.43364,-0.20089 0.65503,-0.27043 0.22063,-0.0746 0.44429,-0.12878 0.671,-0.16223 1.28811,-0.19018 2.36041,0.0122 3.21689,0.60703 0.85645,0.59486 1.37368,1.49512 1.55167,2.7008 0.18333,1.24175 -0.0605,2.26489 -0.73147,3.06941 -0.67171,0.79937 -1.71089,1.30289 -3.11752,1.51053 -0.48433,0.0715 -0.98506,0.10329 -1.50217,0.0954 -0.51196,-0.009 -1.04804,-0.0559 -1.60824,-0.14166 l -0.23161,-1.56894 c 0.501,0.18402 1.00795,0.30135 1.52084,0.35199 0.51289,0.0506 1.045,0.0353 1.59631,-0.0461 0.89138,-0.13162 1.56266,-0.47022 2.01386,-1.01593 0.45118,-0.5457 0.61744,-1.22043 0.4988,-2.02423 -0.11869,-0.80378 -0.4728,-1.40171 -1.06242,-1.79377 -0.58962,-0.39204 -1.33012,-0.52228 -2.22149,-0.3907 -0.41736,0.0616 -0.82787,0.16959 -1.23152,0.32394 -0.39851,0.1536 -0.79972,0.36024 -1.20363,0.61993 l -0.85568,-5.79657 m 12.18098,-1.4086 0.28652,4.32647 -1.32523,0.0877 -0.28652,-4.32646 1.32522,-0.0878 m 3.37953,-0.41232 1.59206,0.0731 1.99821,9.96154 2.89508,-9.7368 1.77157,0.0814 1.99821,9.96154 2.89507,-9.73681 1.59987,0.0735 -3.46172,11.51737 -1.98229,-0.091 -1.99383,-10.22724 -2.94628,10.00035 -1.98229,-0.091 -2.38366,-11.78583 m 27.30401,2.75795 c -0.94934,1.01039 -1.72067,2.04846 -2.31396,3.11424 -0.59331,1.06578 -1.02519,2.18484 -1.29563,3.35717 -0.27046,1.17234 -0.37363,2.37257 -0.30952,3.6007 0.0703,1.22423 0.30897,2.49529 0.71584,3.8132 l -1.218,-0.28099 c -0.48613,-1.36826 -0.78662,-2.67231 -0.90148,-3.91214 -0.10979,-1.23867 -0.0335,-2.42641 0.22871,-3.56322 0.26107,-1.13173 0.7117,-2.22776 1.35185,-3.28809 0.64014,-1.0603 1.48154,-2.10093 2.52417,-3.12185 l 1.21802,0.28098 m 0.85806,11.39544 2.44796,0.80884 2.79173,-8.44917 -2.83956,-0.34582 0.451,-1.36492 2.82472,0.34092 1.49845,0.49511 -3.24273,9.81409 2.44796,0.80884 -0.41668,1.26108 -6.37952,-2.1079 0.41667,-1.26107 m 9.07937,4.35756 0.6035,-1.30468 c 0.28054,0.33637 0.58439,0.63473 0.91156,0.8951 0.32716,0.26037 0.66801,0.47255 1.02255,0.63655 0.94542,0.43732 1.81281,0.45405 2.60216,0.0502 0.79625,-0.40637 1.5294,-1.24077 2.19945,-2.50321 -0.46223,0.27972 -0.95398,0.43099 -1.47528,0.45383 -0.5213,0.0228 -1.03721,-0.0838 -1.54772,-0.31997 -1.05888,-0.4898 -1.75035,-1.197 -2.07441,-2.12161 -0.31714,-0.92714 -0.21882,-1.94614 0.29506,-3.05701 0.50292,-1.08723 1.22779,-1.81069 2.17462,-2.17039 0.94682,-0.35969 1.95439,-0.29244 3.02272,0.20173 1.22432,0.56633 1.94035,1.46853 2.14811,2.7066 0.21465,1.23554 -0.0913,2.74671 -0.91781,4.53356 -0.77188,1.66867 -1.78557,2.81803 -3.04109,3.4481 -1.24862,0.62753 -2.54181,0.63189 -3.87958,0.0131 -0.35926,-0.16619 -0.70684,-0.37001 -1.04276,-0.61147 -0.33592,-0.24147 -0.66961,-0.52494 -1.00108,-0.85043 m 4.92662,-3.16986 c 0.64288,0.29739 1.25271,0.31264 1.82952,0.0458 0.58151,-0.2647 1.04939,-0.77994 1.40363,-1.54574 0.35203,-0.76105 0.44065,-1.44886 0.26584,-2.06341 -0.16791,-0.61708 -0.5733,-1.07432 -1.21618,-1.3717 -0.64289,-0.29737 -1.25619,-0.31136 -1.83989,-0.0419 -0.5768,0.26688 -1.04122,0.78085 -1.39326,1.54191 -0.35424,0.7658 -0.44631,1.45487 -0.27622,2.06723 0.17482,0.61455 0.58366,1.07052 1.22656,1.36789 m 9.8563,4.84752 c -0.64065,-0.38997 -1.24986,-0.52605 -1.82764,-0.40826 -0.57334,0.12052 -1.0428,0.48105 -1.4084,1.08166 -0.3656,0.6006 -0.47025,1.18321 -0.31396,1.74785 0.16073,0.56734 0.56142,1.04599 1.20207,1.43595 0.64064,0.38997 1.24985,0.52606 1.82764,0.40827 0.58049,-0.12225 1.05218,-0.48145 1.41507,-1.0776 0.36559,-0.6006 0.46802,-1.18457 0.3073,-1.75191 -0.1563,-0.56463 -0.55699,-1.04329 -1.20208,-1.43596 m -0.99867,-1.39447 c -0.49171,-0.49442 -0.77944,-1.03845 -0.86317,-1.6321 -0.0793,-0.59093 0.0544,-1.17113 0.401,-1.7406 0.48475,-0.79635 1.15045,-1.25391 1.99711,-1.37267 0.8511,-0.11609 1.77048,0.12653 2.75815,0.72773 0.9921,0.60392 1.62984,1.30917 1.91322,2.11579 0.28336,0.80662 0.18268,1.60811 -0.30208,2.40446 -0.34664,0.56947 -0.80286,0.95332 -1.36864,1.15159 -0.56136,0.20097 -1.17231,0.19796 -1.83287,-0.009 0.55745,0.54665 0.88231,1.14988 0.97458,1.80967 0.0967,0.66252 -0.0486,1.31187 -0.43582,1.94806 -0.58767,0.96541 -1.33442,1.52607 -2.24026,1.68197 -0.9014,0.15863 -1.90155,-0.0965 -3.00043,-0.76545 -1.09888,-0.66891 -1.78711,-1.44149 -2.06467,-2.31774 -0.27312,-0.87354 -0.1158,-1.79302 0.47182,-2.75844 0.38726,-0.63619 0.89734,-1.06347 1.53026,-1.28186 0.63291,-0.21837 1.32018,-0.2055 2.0618,0.0386 m 0.802,-2.42941 c -0.31415,0.51608 -0.39907,1.0162 -0.25477,1.50036 0.14874,0.48687 0.51451,0.90769 1.09733,1.26245 0.57835,0.35206 1.11793,0.48234 1.61873,0.39085 0.50524,-0.0888 0.91494,-0.3912 1.22908,-0.90728 0.31413,-0.51607 0.39461,-1.0189 0.24143,-1.50848 -0.14875,-0.48687 -0.51231,-0.90633 -1.09066,-1.25839 -0.58281,-0.35476 -1.12462,-0.48639 -1.6254,-0.39492 -0.49636,0.0942 -0.90161,0.39935 -1.21574,0.91541 m 10.19738,3.05745 4.89472,3.79784 -0.81417,1.04932 -3.75282,-2.91184 -1.75285,2.2591 c 0.22894,0.0788 0.44512,0.17398 0.64853,0.28565 0.20659,0.10757 0.40043,0.23159 0.58148,0.37207 1.02874,0.79821 1.62478,1.71225 1.78816,2.74215 0.16337,1.02989 -0.12852,2.02629 -0.87563,2.98919 -0.76947,0.9917 -1.67674,1.52379 -2.72181,1.59627 -1.04189,0.0684 -2.12451,-0.33328 -3.24789,-1.2049 -0.38681,-0.30013 -0.7563,-0.63956 -1.10848,-1.01829 -0.34807,-0.37554 -0.68498,-0.79518 -1.01077,-1.25891 l 0.97221,-1.25299 c 0.2139,0.48898 0.48004,0.93611 0.79845,1.34137 0.31841,0.40527 0.69776,0.77872 1.13806,1.12034 0.71188,0.55237 1.4209,0.80255 2.12706,0.75057 0.70615,-0.052 1.30826,-0.39896 1.80635,-1.04088 0.49807,-0.64193 0.68458,-1.31136 0.55952,-2.0083 -0.12509,-0.69693 -0.54355,-1.32157 -1.25542,-1.87393 -0.33332,-0.25862 -0.69537,-0.48019 -1.08614,-0.66475 -0.38667,-0.18135 -0.81349,-0.32794 -1.28047,-0.43978 l 3.59191,-4.6293 m 8.70135,6.47314 0.91379,0.85292 c -0.2676,1.43165 -0.6621,2.70921 -1.1835,3.83268 -0.51761,1.12703 -1.17267,2.11508 -1.96518,2.96415 -0.79606,0.85287 -1.74024,1.57818 -2.83251,2.17594 -1.08848,0.60132 -2.33586,1.08282 -3.74213,1.4445 l -0.91379,-0.85293 c 1.32022,-0.39924 2.50566,-0.91362 3.55632,-1.5431 1.05801,-0.62975 1.99749,-1.38439 2.81842,-2.26392 0.82094,-0.87952 1.50557,-1.8649 2.0539,-2.95615 0.55212,-1.08767 0.98368,-2.30571 1.29468,-3.65409"
       inkscape:connector-curvature="0" />
    <path
       style="font-style:normal;font-variant:normal;font-weight:normal;font-stretch:semi-condensed;font-size:18px;line-height:125%;font-family:'DejaVu Sans';-inkscape-font-specification:'DejaVu Sans Semi-Condensed';text-align:center;writing-mode:lr-tb;text-anchor:middle;fill:#e50083;fill-opacity:1;stroke:none"
       id="text8255"
       d="m 491.73842,646.12424 -5.71338,2.37359 2.91432,3.14687 2.79906,-5.52046 m 0.53551,-1.70982 1.21563,1.31263 -5.5374,11.18698 -1.11476,-1.20373 1.47341,-2.81267 -3.57256,-3.85765 -2.91731,1.25358 -1.13069,-1.22093 11.58368,-4.65821 m 4.43381,4.68364 1.6307,1.36251 -2.28772,10.80415 6.25655,-7.48803 1.17506,0.98181 -7.4788,8.95087 -1.6307,-1.36252 2.28771,-10.80415 -6.25655,7.48802 -1.17506,-0.9818 7.47881,-8.95086 m 8.05513,6.59238 1.7987,1.13151 -0.818,11.01335 5.19573,-8.2595 1.29613,0.81535 -6.21075,9.87304 -1.79871,-1.13149 0.818,-11.01337 -5.19573,8.2595 -1.29613,-0.81534 6.21076,-9.87305 m 8.7224,5.37864 1.44254,0.65901 -2.94445,6.44521 c -0.51943,1.13698 -0.68776,2.05069 -0.50502,2.74113 0.1849,0.68572 0.73926,1.23959 1.66304,1.66162 0.91905,0.41986 1.69828,0.47523 2.33768,0.16609 0.64155,-0.31387 1.22205,-1.0393 1.74147,-2.17627 l 2.94445,-6.44521 1.44254,0.65902 -3.02562,6.62285 c -0.63197,1.38332 -1.45264,2.271 -2.46202,2.66306 -1.00467,0.39422 -2.17496,0.28617 -3.5109,-0.32414 -1.34068,-0.61249 -2.19325,-1.42857 -2.55769,-2.44825 -0.35971,-1.01752 -0.22358,-2.21794 0.40837,-3.60125 l 3.02561,-6.62287 m 12.79882,6.85718 -3.77026,4.90527 4.09494,1.27572 -0.32468,-6.18099 m -0.3879,-1.74924 1.7081,0.53213 0.77482,12.45837 -1.56638,-0.48798 -0.12443,-3.17279 -5.01986,-1.56387 -1.90439,2.54075 -1.58875,-0.49495 7.72089,-9.81166 m 6.39015,1.82428 1.54921,0.30074 -1.96966,10.14653 5.57561,1.08235 -0.2531,1.30378 -7.12481,-1.38307 2.22275,-11.45033 m 13.38053,3.22 -0.1602,9.0689 1.90596,0.0337 c 1.60911,0.0284 2.79245,-0.31531 3.55001,-1.03121 0.76275,-0.7158 1.15803,-1.86003 1.18582,-3.43271 0.0276,-1.56225 -0.32717,-2.71192 -1.06425,-3.44902 -0.7318,-0.7422 -1.90227,-1.12752 -3.51138,-1.15596 l -1.90596,-0.0337 m -1.55497,-1.32455 3.24168,0.0573 c 2.26006,0.0399 3.91032,0.54052 4.95081,1.50175 1.04056,0.95603 1.54319,2.43389 1.50787,4.43357 -0.0355,2.0101 -0.59277,3.47705 -1.67173,4.40084 -1.079,0.92381 -2.74332,1.36583 -4.99296,1.32609 l -3.24168,-0.0573 0.20601,-11.66225 m 10.86184,0.019 7.33283,-0.78754 0.14185,1.32053 -5.76373,0.61902 0.36874,3.43338 5.52293,-0.59315 0.14186,1.32053 -5.52293,0.59314 0.45133,4.2024 5.90355,-0.63403 0.14185,1.32053 -7.47265,0.80255 -1.24554,-11.59737 m 17.39941,-2.08714 0.37289,1.62175 c -0.62862,-0.36316 -1.26476,-0.59634 -1.90841,-0.69953 -0.63859,-0.10433 -1.28781,-0.0806 -1.94767,0.071 -1.29943,0.29879 -2.20268,0.92599 -2.70977,1.88162 -0.50825,0.95057 -0.58965,2.17708 -0.24418,3.67954 0.34428,1.49738 0.95321,2.56517 1.82677,3.20336 0.87238,0.63311 1.95829,0.80028 3.25772,0.5015 0.65986,-0.15171 1.25423,-0.41397 1.78311,-0.78675 0.53393,-0.37395 1.00434,-0.86155 1.41122,-1.46281 l 0.36938,1.60651 c -0.45401,0.48919 -0.96203,0.89458 -1.52404,1.21619 -0.55694,0.32046 -1.17041,0.5577 -1.84043,0.71176 -1.72073,0.39565 -3.19678,0.18191 -4.42817,-0.64121 -1.23255,-0.8282 -2.05832,-2.15342 -2.47731,-3.97567 -0.42015,-1.82731 -0.2562,-3.38011 0.49208,-4.65842 0.74703,-1.28335 1.98092,-2.12286 3.70164,-2.51851 0.68017,-0.15638 1.34074,-0.21207 1.98171,-0.16703 0.64488,0.0388 1.2727,0.17769 1.88346,0.41668 m 8.07279,2.71047 c 0.35729,-0.009 0.74961,0.10808 1.17695,0.35086 0.43222,0.24102 0.91282,0.61406 1.44182,1.11914 l 2.60046,2.44187 -1.59181,0.58328 -2.43057,-2.29611 c -0.63068,-0.60094 -1.16109,-0.95852 -1.59121,-1.07271 -0.42525,-0.11598 -0.93129,-0.0665 -1.51813,0.14862 l -1.61382,0.59134 1.69609,4.62873 -1.48177,0.54296 -4.0131,-10.95195 3.345,-1.2257 c 1.25193,-0.45873 2.28186,-0.53936 3.08979,-0.24185 0.80792,0.2975 1.40542,0.9744 1.79249,2.0307 0.25265,0.68955 0.30093,1.32086 0.14475,1.89393 -0.15123,0.57129 -0.50023,1.05696 -1.04701,1.45699 m -5.39712,-3.23928 1.42461,3.88784 1.86322,-0.68274 c 0.71399,-0.26162 1.1919,-0.62256 1.43373,-1.08283 0.24492,-0.46693 0.25001,-1.02073 0.0153,-1.66137 -0.23475,-0.64062 -0.59465,-1.05513 -1.07969,-1.24351 -0.48195,-0.19504 -1.07992,-0.16175 -1.79391,0.0999 l -1.86323,0.68274 m 7.16574,-4.15041 6.57293,-3.34475 0.60234,1.18369 -5.16643,2.62902 1.56607,3.07758 4.95059,-2.51918 0.60234,1.18367 -4.95059,2.51919 1.91685,3.7669 5.29176,-2.6928 0.60234,1.18368 -6.69826,3.40852 -5.28994,-10.39552 m 11.87273,-4.91555 1.44184,6.01646 3.56749,-2.38098 -5.00933,-3.63548 m -1.60384,-0.79872 1.48808,-0.99316 10.17249,7.23405 -1.36461,0.91076 -2.5448,-1.89898 -4.37326,2.91876 0.7773,3.07861 -1.38412,0.92378 -2.77108,-12.17382 m 10.9707,-7.99647 0.99734,1.17218 c -0.64181,0.16998 -1.21059,0.37354 -1.70633,0.61069 -0.49573,0.23717 -0.93202,0.51607 -1.30888,0.83669 -0.65451,0.5569 -1.05227,1.11416 -1.19328,1.67178 -0.13704,0.55427 -0.006,1.06545 0.39184,1.53352 0.33414,0.39272 0.70429,0.59066 1.11046,0.59383 0.40676,-0.004 0.9917,-0.22489 1.75482,-0.6622 l 0.85248,-0.46889 c 1.04162,-0.59219 1.9586,-0.85268 2.75094,-0.78144 0.79291,0.0639 1.49651,0.45683 2.11079,1.17878 0.73239,0.86081 0.99802,1.75972 0.79688,2.69676 -0.19717,0.93367 -0.85309,1.87471 -1.96775,2.82312 -0.42048,0.35776 -0.90923,0.69155 -1.46624,1.00135 -0.55306,0.30644 -1.16277,0.58244 -1.82915,0.82802 l -1.05303,-1.23764 c 0.7208,-0.14141 1.3743,-0.34185 1.9605,-0.60129 0.58622,-0.25941 1.10543,-0.58151 1.55764,-0.96628 0.68625,-0.58388 1.10107,-1.16933 1.24444,-1.75634 0.14336,-0.58699 0.002,-1.1304 -0.42285,-1.63023 -0.37125,-0.43633 -0.79639,-0.66272 -1.27538,-0.67916 -0.47503,-0.0197 -1.07031,0.16868 -1.78582,0.56548 l -0.85337,0.4799 c -1.04837,0.58428 -1.93489,0.85645 -2.65954,0.81652 -0.72465,-0.0399 -1.37556,-0.39904 -1.9527,-1.07737 -0.66827,-0.78541 -0.9191,-1.6388 -0.75248,-2.56016 0.1706,-0.92472 0.74181,-1.80054 1.71367,-2.62745 0.41652,-0.35438 0.87303,-0.67783 1.36953,-0.97036 0.49651,-0.2925 1.035,-0.55577 1.61547,-0.78981 m 1.09999,-1.57223 5.0455,-5.379 0.96867,0.90862 -3.96584,4.22798 2.51855,2.36241 3.80016,-4.05134 0.96867,0.90862 -3.80016,4.05134 3.08266,2.89154 4.06206,-4.33055 0.96867,0.90863 -5.14171,5.48155 -8.50723,-7.9798 m 15.69975,-9.56442 c -0.41242,0.62643 -0.57002,1.23044 -0.47278,1.81202 0.10015,0.57726 0.4438,1.05921 1.03106,1.44586 0.58726,0.38666 1.16581,0.5119 1.73562,0.37572 0.57268,-0.14053 1.06524,-0.524 1.47767,-1.15041 0.41243,-0.62642 0.57002,-1.23043 0.47279,-1.81203 -0.10159,-0.58445 -0.44385,-1.06858 -1.02676,-1.45238 -0.58727,-0.38665 -1.16725,-0.50971 -1.73993,-0.36919 -0.56981,0.1362 -1.06237,0.51965 -1.47767,1.15041 m -1.42899,0.94862 c -0.51152,0.47387 -1.06542,0.74213 -1.66166,0.80478 -0.59337,0.0583 -1.16847,-0.0958 -1.72529,-0.46245 -0.77866,-0.51267 -1.21234,-1.19417 -1.30102,-2.04451 -0.0858,-0.85468 0.18921,-1.76489 0.82503,-2.73062 0.63871,-0.97007 1.36613,-1.5824 2.18228,-1.83702 0.81616,-0.25458 1.61354,-0.12592 2.39224,0.38711 0.55682,0.36662 0.92427,0.83615 1.10235,1.40861 0.18094,0.56812 0.15628,1.17859 -0.074,1.8314 0.56607,-0.53773 1.18042,-0.84101 1.84308,-0.90983 0.66553,-0.0731 1.30931,0.095 1.93138,0.50461 0.94398,0.62151 1.47781,1.38766 1.6015,2.29846 0.12653,0.90647 -0.16389,1.89693 -0.87132,2.9714 -0.70744,1.0745 -1.50392,1.7349 -2.38946,1.98123 -0.88268,0.24198 -1.796,0.0522 -2.73998,-0.5693 -0.62207,-0.40956 -1.03101,-0.93447 -1.22681,-1.57473 -0.19581,-0.64026 -0.15855,-1.32664 0.11166,-2.05914 m -2.39944,-0.88761 c 0.50462,0.33225 1.00141,0.43484 1.49038,0.3078 0.49184,-0.13141 0.92536,-0.48203 1.30055,-1.0519 0.37234,-0.56551 0.52166,-1.10012 0.44798,-1.60386 -0.0709,-0.50806 -0.35852,-0.92822 -0.86314,-1.26047 -0.50461,-0.33222 -1.00427,-0.43048 -1.49898,-0.29474 -0.49183,0.13141 -0.92392,0.47986 -1.29625,1.04537 -0.37519,0.56987 -0.52596,1.10667 -0.45228,1.61038 0.0765,0.49939 0.36713,0.91519 0.87174,1.24742 m 2.30079,-9.4508 3.80472,2.07953 -0.63696,1.16541 -3.80473,-2.07952 0.63697,-1.16542"
       inkscape:connector-curvature="0" />
    <path
       style="font-style:normal;font-variant:normal;font-weight:normal;font-stretch:semi-condensed;font-size:18px;line-height:125%;font-family:'DejaVu Sans';-inkscape-font-specification:'DejaVu Sans Semi-Condensed';text-align:center;writing-mode:lr-tb;text-anchor:middle;fill:none;stroke:none"
       id="path8296"
       d="m 476.70872,643.57917 c 28.44128,40.46999 84.36927,50.23242 124.83926,21.79113 40.46998,-28.44127 50.23241,-84.36926 21.79113,-124.83926"
       inkscape:connector-curvature="0" />
    <path
       style="font-style:normal;font-variant:normal;font-weight:normal;font-stretch:semi-condensed;font-size:18px;line-height:125%;font-family:'DejaVu Sans';-inkscape-font-specification:'DejaVu Sans Semi-Condensed';text-align:center;writing-mode:lr-tb;text-anchor:middle;fill:none;stroke:none"
       id="path8291"
       d="m 460.41451,592.05511 c 0,-49.46439 40.14502,-89.60941 89.60942,-89.60941 49.46439,0 89.60941,40.14502 89.60941,89.60941"
       inkscape:connector-curvature="0" />
  </g>
</svg>
